<svg width="361" height="212" viewBox="0 0 361 212" fill="none" xmlns="http://www.w3.org/2000/svg">
<rect x="4" y="117" width="19" height="92" fill="#D65B34"/>
<rect x="23" y="163" width="23" height="46" fill="#D65B34"/>
<rect x="46" y="140" width="23" height="69" fill="#D65B34"/>
<rect x="69" y="71" width="23" height="138" fill="#D65B34"/>
<rect x="92" y="71" width="23" height="138" fill="#D65B34"/>
<rect x="115" y="48" width="23" height="161" fill="#D65B34"/>
<rect x="138" y="25" width="23" height="184" fill="#D65B34"/>
<rect x="161" y="94" width="23" height="115" fill="#D65B34"/>
<rect x="184" y="140" width="23" height="69" fill="#D65B34"/>
<rect x="207" y="117" width="22" height="92" fill="#D65B34"/>
<rect x="229" y="140" width="23" height="69" fill="#D65B34"/>
<rect x="252" y="163" width="23" height="46" fill="#D65B34"/>
<rect x="275" y="94" width="23" height="115" fill="#D65B34"/>
<rect x="298" y="48" width="23" height="161" fill="#D65B34"/>
<rect x="321" y="25" width="23" height="184" fill="#D65B34"/>
<rect x="338" y="117" width="23" height="92" fill="#D65B34"/>
<rect x="2" y="2" width="357" height="208" stroke="#0076BE" stroke-width="4"/>
<line x1="23.4092" y1="3.5932" x2="23.4092" y2="212" stroke="#0076BE"/>
<line x1="46.3184" y1="3.5932" x2="46.3183" y2="212" stroke="#0076BE"/>
<line x1="69.2275" y1="3.5932" x2="69.2275" y2="212" stroke="#0076BE"/>
<line x1="92.1367" y1="3.5932" x2="92.1367" y2="212" stroke="#0076BE"/>
<line x1="115.045" y1="3.5932" x2="115.045" y2="212" stroke="#0076BE"/>
<line x1="137.954" y1="3.5932" x2="137.954" y2="212" stroke="#0076BE"/>
<line x1="160.863" y1="3.5932" x2="160.863" y2="212" stroke="#0076BE"/>
<line x1="183.773" y1="3.5932" x2="183.773" y2="212" stroke="#0076BE"/>
<line x1="206.682" y1="3.5932" x2="206.682" y2="212" stroke="#0076BE"/>
<line x1="229.591" y1="3.5932" x2="229.591" y2="212" stroke="#0076BE"/>
<line x1="252.5" y1="3.5932" x2="252.5" y2="212" stroke="#0076BE"/>
<line x1="275.409" y1="3.5932" x2="275.409" y2="212" stroke="#0076BE"/>
<line x1="298.318" y1="3.5932" x2="298.318" y2="212" stroke="#0076BE"/>
<line x1="321.228" y1="3.5932" x2="321.228" y2="212" stroke="#0076BE"/>
<line x1="344.136" y1="3.5932" x2="344.136" y2="212" stroke="#0076BE"/>
<line y1="24.9794" x2="357" y2="24.9794" stroke="#0076BE"/>
<line y1="47.9794" x2="357" y2="47.9794" stroke="#0076BE"/>
<line y1="70.9794" x2="357" y2="70.9794" stroke="#0076BE"/>
<line y1="93.9794" x2="357" y2="93.9794" stroke="#0076BE"/>
<line y1="116.979" x2="357" y2="116.979" stroke="#0076BE"/>
<line y1="139.979" x2="357" y2="139.979" stroke="#0076BE"/>
<line y1="162.979" x2="357" y2="162.979" stroke="#0076BE"/>
<line y1="185.979" x2="357" y2="185.979" stroke="#0076BE"/>
<line y1="208.979" x2="357" y2="208.979" stroke="#0076BE"/>
</svg>
