<svg width="1191" height="69" viewBox="0 0 1191 69" fill="none" xmlns="http://www.w3.org/2000/svg">
<path d="M0 55.5H14.5L20 19.5L25.5 55.5H32.5L36 68L48.5 1L56 55.5" stroke="#D65B34"/>
<path d="M56 55.5H70.5L76 19.5L81.5 55.5H88.5L92 68L104.5 1L112 55.5" stroke="#D65B34"/>
<path d="M112 55.5H126.5L132 19.5L137.5 55.5H144.5L148 68L160.5 1L168 55.5" stroke="#D65B34"/>
<path d="M168 55.5H183" stroke="#D65B34"/>
<path d="M168 55.5H182.5L188 19.5L193.5 55.5H200.5L204 68L216.5 1L224 55.5" stroke="#D65B34"/>
<path d="M224 55.5H238.5L244 19.5L249.5 55.5H256.5L260 68L272.5 1L280 55.5" stroke="#D65B34"/>
<path d="M280 55.5H294.5L300 19.5L305.5 55.5H312.5L316 68L328.5 1L336 55.5" stroke="#D65B34"/>
<path d="M336 55.5H351" stroke="#D65B34"/>
<path d="M336 55.5H350.5L356 19.5L361.5 55.5H368.5L372 68L384.5 1L392 55.5" stroke="#D65B34"/>
<path d="M392 55.5H406.5L412 19.5L417.5 55.5H424.5L428 68L440.5 1L448 55.5" stroke="#D65B34"/>
<path d="M448 55.5H462.5L468 19.5L473.5 55.5H480.5L484 68L496.5 1L504 55.5" stroke="#D65B34"/>
<path d="M504 55.5H519" stroke="#D65B34"/>
<path d="M504 55.5H518.5L524 19.5L529.5 55.5H536.5L540 68L552.5 1L560 55.5" stroke="#D65B34"/>
<path d="M560 55.5H574.5L580 19.5L585.5 55.5H592.5L596 68L608.5 1L616 55.5" stroke="#D65B34"/>
<path d="M616 55.5H630.5L636 19.5L641.5 55.5H648.5L652 68L664.5 1L672 55.5" stroke="#D65B34"/>
<path d="M672 55.5H687" stroke="#D65B34"/>
<path d="M672 55.5H686.5L692 19.5L697.5 55.5H704.5L708 68L720.5 1L728 55.5" stroke="#D65B34"/>
<path d="M728 55.5H742.5L748 19.5L753.5 55.5H760.5L764 68L776.5 1L784 55.5" stroke="#D65B34"/>
<path d="M784 55.5H798.5L804 19.5L809.5 55.5H816.5L820 68L832.5 1L840 55.5" stroke="#D65B34"/>
<path d="M840 55.5H855" stroke="#D65B34"/>
<path d="M840 55.5H854.5L860 19.5L865.5 55.5H872.5L876 68L888.5 1L896 55.5" stroke="#D65B34"/>
<path d="M896 55.5H910.5L916 19.5L921.5 55.5H928.5L932 68L944.5 1L952 55.5" stroke="#D65B34"/>
<path d="M952 55.5H966.5L972 19.5L977.5 55.5H984.5L988 68L1000.5 1L1008 55.5" stroke="#D65B34"/>
<path d="M1008 55.5H1023" stroke="#D65B34"/>
<path d="M1008 55.5H1022.5L1028 19.5L1033.5 55.5H1040.5L1044 68L1056.5 1L1064 55.5" stroke="#D65B34"/>
<path d="M1064 55.5H1078.5L1084 19.5L1089.5 55.5H1096.5L1100 68L1112.5 1L1120 55.5" stroke="#D65B34"/>
<path d="M1120 55.5H1134.5L1140 19.5L1145.5 55.5H1152.5L1156 68L1168.5 1L1176 55.5" stroke="#D65B34"/>
<path d="M1176 55.5H1191" stroke="#D65B34"/>
</svg>
