<svg width="393" height="240" viewBox="0 0 393 240" fill="none" xmlns="http://www.w3.org/2000/svg">
<line x1="388" y1="240" x2="388" y2="197" stroke="#0076BE" stroke-width="2"/>
<line x1="387" y1="239" x2="344" y2="239" stroke="#0076BE" stroke-width="2"/>
<line x1="344" y1="239" x2="301" y2="239" stroke="#0076BE" stroke-width="2" stroke-dasharray="7 7"/>
<line x1="388" y1="43" x2="388" y2="4" stroke="#0076BE" stroke-width="2"/>
<line x1="349" y1="5" x2="388" y2="5" stroke="#0076BE" stroke-width="2"/>
<line x1="388" y1="110" x2="388" y2="71" stroke="#0076BE" stroke-width="2" stroke-dasharray="4 4"/>
<rect x="393" y="42" width="33" height="10" transform="rotate(90 393 42)" fill="#0076BE"/>
<line x1="43" y1="5" x2="4" y2="5" stroke="#0076BE" stroke-width="2"/>
<line x1="5" y1="43" x2="5" y2="4" stroke="#0076BE" stroke-width="2"/>
<line x1="110" y1="5" x2="71" y2="5" stroke="#0076BE" stroke-width="2" stroke-dasharray="4 4"/>
<rect x="42" width="33" height="10" fill="#0076BE"/>
<line x1="5" y1="201" x2="5" y2="240" stroke="#0076BE" stroke-width="2"/>
<line x1="44" y1="239" x2="5" y2="239" stroke="#0076BE" stroke-width="2"/>
<line x1="5" y1="134" x2="5" y2="173" stroke="#0076BE" stroke-width="2" stroke-dasharray="4 4"/>
<line x1="134" y1="239" x2="173" y2="239" stroke="#0076BE" stroke-width="2" stroke-dasharray="4 4"/>
<rect y="202" width="33" height="10" transform="rotate(-90 0 202)" fill="#0076BE"/>
</svg>
