<svg width="530" height="361" viewBox="0 0 530 361" fill="none" xmlns="http://www.w3.org/2000/svg">
<line x1="250.552" y1="5.52411" x2="320.142" y2="5.52411" stroke="#0076BE" stroke-width="2" stroke-dasharray="8 8"/>
<line x1="524.476" y1="54.3674" x2="524.476" y2="95.6867" stroke="#0076BE" stroke-width="2" stroke-dasharray="7 7"/>
<line x1="458.235" y1="5.34937" x2="416.916" y2="5.34936" stroke="#0076BE" stroke-width="2" stroke-dasharray="7 7"/>
<rect x="483.244" width="10.8735" height="35.8825" transform="rotate(90 483.244 0)" fill="#0076BE"/>
<rect x="530" y="75.0271" width="10.8735" height="35.8825" transform="rotate(-180 530 75.0271)" fill="#0076BE"/>
<line x1="524.476" y1="4.34937" x2="524.476" y2="56.5421" stroke="#0076BE" stroke-width="2"/>
<line x1="524.563" y1="5.34943" x2="483.244" y2="5.34943" stroke="#0076BE" stroke-width="2"/>
<line x1="6.98535" y1="5.52411" x2="49.392" y2="5.52411" stroke="#0076BE" stroke-width="2"/>
<line x1="49.3916" y1="5.52411" x2="91.7982" y2="5.52411" stroke="#0076BE" stroke-width="2" stroke-dasharray="7 7"/>
<line x1="5.98535" y1="45.6687" x2="5.98535" y2="4.34939" stroke="#0076BE" stroke-width="2" stroke-dasharray="7 7"/>
<line x1="5.98535" y1="108.735" x2="5.98535" y2="67.4156" stroke="#0076BE" stroke-width="2" stroke-dasharray="7 7"/>
<line x1="5.98535" y1="304.458" x2="5.98535" y2="263.139" stroke="#0076BE" stroke-width="2" stroke-dasharray="7 7"/>
<line x1="72.2256" y1="355.651" x2="113.545" y2="355.651" stroke="#0076BE" stroke-width="2" stroke-dasharray="7 7"/>
<rect x="0.460938" y="43.494" width="10.8735" height="35.8825" fill="#0076BE"/>
<rect x="47.2168" y="361" width="10.8735" height="35.8825" transform="rotate(-90 47.2168 361)" fill="#0076BE"/>
<line x1="5.98535" y1="356.651" x2="5.98535" y2="304.458" stroke="#0076BE" stroke-width="2"/>
<line x1="5.89746" y1="355.651" x2="47.2167" y2="355.651" stroke="#0076BE" stroke-width="2"/>
<line x1="525.65" y1="355.476" x2="432.138" y2="355.476" stroke="#0076BE" stroke-width="2" stroke-dasharray="7 7"/>
<line x1="524.65" y1="289.235" x2="524.65" y2="247.916" stroke="#0076BE" stroke-width="2" stroke-dasharray="7 7"/>
<rect x="530" y="314.244" width="10.8735" height="35.8825" transform="rotate(180 530 314.244)" fill="#0076BE"/>
<line x1="524.65" y1="355.563" x2="524.65" y2="314.244" stroke="#0076BE" stroke-width="2"/>
<line x1="167.913" y1="355.651" x2="237.503" y2="355.651" stroke="#0076BE" stroke-width="2" stroke-dasharray="8 8"/>
</svg>
