<svg width="348" height="182" viewBox="0 0 348 182" fill="none" xmlns="http://www.w3.org/2000/svg">
<rect x="12" y="55" width="12" height="33" transform="rotate(180 12 55)" fill="#0076BE"/>
<line x1="7" y1="5" x2="37.374" y2="5" stroke="#0076BE" stroke-width="2"/>
<line x1="37" y1="5" x2="67.374" y2="5" stroke="#0076BE" stroke-width="2" stroke-dasharray="4 4"/>
<line x1="6" y1="31.5757" x2="6" y2="3.99999" stroke="#0076BE" stroke-width="2"/>
<rect x="56.2256" y="170.97" width="11.0303" height="33.1352" transform="rotate(90 56.2256 170.97)" fill="#0076BE"/>
<line x1="6.44336" y1="177.404" x2="6.44336" y2="150.747" stroke="#0076BE" stroke-width="2"/>
<line x1="6.44336" y1="150.747" x2="6.44336" y2="120.414" stroke="#0076BE" stroke-width="2" stroke-dasharray="4 4"/>
<line x1="41.498" y1="176.404" x2="71.872" y2="176.404" stroke="#0076BE" stroke-width="2" stroke-dasharray="4 4"/>
<line x1="33.2148" y1="176.566" x2="5.60215" y2="176.566" stroke="#0076BE" stroke-width="2"/>
<rect x="336.955" y="126.849" width="11.0451" height="33.0909" fill="#0076BE"/>
<rect x="295.535" y="182" width="11.0303" height="33.1352" transform="rotate(-90 295.535 182)" fill="#0076BE"/>
<line x1="341.557" y1="176.566" x2="324.069" y2="176.566" stroke="#0076BE" stroke-width="2"/>
<line x1="311.183" y1="176.566" x2="280.809" y2="176.566" stroke="#0076BE" stroke-width="2" stroke-dasharray="4 4"/>
<line x1="342.557" y1="149.828" x2="342.557" y2="177.404" stroke="#0076BE" stroke-width="2"/>
<rect x="292.774" y="11.0303" width="11.0303" height="33.1352" transform="rotate(-90 292.774 11.0303)" fill="#0076BE"/>
<line x1="342.557" y1="6.43433" x2="342.557" y2="36.7677" stroke="#0076BE" stroke-width="2"/>
<line x1="342.557" y1="36.7677" x2="342.557" y2="67.101" stroke="#0076BE" stroke-width="2" stroke-dasharray="4 4"/>
<line x1="268.844" y1="5.43433" x2="299.218" y2="5.43433" stroke="#0076BE" stroke-width="2" stroke-dasharray="4 4"/>
<line x1="131.7" y1="5.43433" x2="210.857" y2="5.43433" stroke="#0076BE" stroke-width="2" stroke-dasharray="7 7"/>
<line x1="89.3613" y1="176.404" x2="151.95" y2="176.404" stroke="#0076BE" stroke-width="2" stroke-dasharray="7 7"/>
<line x1="315.785" y1="5.43433" x2="343.398" y2="5.43433" stroke="#0076BE" stroke-width="2"/>
</svg>
