<svg width="955" height="977" viewBox="0 0 955 977" fill="none" xmlns="http://www.w3.org/2000/svg">
<line x1="50" y1="5" x2="5" y2="5" stroke="#0076BE" stroke-width="2"/>
<line x1="100" y1="5" x2="61" y2="5" stroke="#0076BE" stroke-width="2" stroke-dasharray="4 4"/>
<line x1="382" y1="5" x2="284" y2="5" stroke="#0076BE" stroke-width="2" stroke-dasharray="4 4"/>
<line x1="595" y1="5" x2="497" y2="5" stroke="#0076BE" stroke-width="2" stroke-dasharray="4 4"/>
<line x1="480" y1="5" x2="382" y2="5" stroke="#0076BE" stroke-width="2"/>
<line x1="842" y1="5" x2="744" y2="5" stroke="#0076BE" stroke-width="2"/>
<line x1="950" y1="43" x2="950" y2="4" stroke="#0076BE" stroke-width="2"/>
<line x1="911" y1="5" x2="950" y2="5" stroke="#0076BE" stroke-width="2"/>
<line x1="950" y1="110" x2="950" y2="71" stroke="#0076BE" stroke-width="2" stroke-dasharray="4 4"/>
<rect x="955" y="42" width="33" height="10" transform="rotate(90 955 42)" fill="#0076BE"/>
<rect x="10" y="907" width="33" height="10" transform="rotate(90 10 907)" fill="#0076BE"/>
<rect x="28" width="33" height="10" fill="#0076BE"/>
<rect x="480" width="33" height="10" fill="#0076BE"/>
<rect x="10" y="54" width="33" height="10" transform="rotate(90 10 54)" fill="#0076BE"/>
<line x1="5" y1="973" x2="5" y2="938" stroke="#0076BE" stroke-width="2"/>
<line x1="40" y1="972" x2="5" y2="972" stroke="#0076BE" stroke-width="2" stroke-dasharray="7 7"/>
<rect x="955" y="275" width="33" height="10" transform="rotate(90 955 275)" fill="#0076BE"/>
<rect x="955" y="928" width="33" height="10" transform="rotate(90 955 928)" fill="#0076BE"/>
<rect x="955" y="622" width="33" height="10" transform="rotate(90 955 622)" fill="#0076BE"/>
<line x1="950" y1="591" x2="950" y2="690" stroke="#0076BE" stroke-width="2" stroke-dasharray="7 7"/>
<line x1="950" y1="462" x2="950" y2="537" stroke="#0076BE" stroke-width="2"/>
<line x1="950" y1="690" x2="950" y2="765" stroke="#0076BE" stroke-width="2"/>
<line x1="950" y1="150" x2="950" y2="275" stroke="#0076BE" stroke-width="2" stroke-dasharray="7 7"/>
<line x1="950" y1="801" x2="950" y2="971" stroke="#0076BE" stroke-width="2" stroke-dasharray="7 7"/>
<line x1="951" y1="972" x2="896" y2="972" stroke="#0076BE" stroke-width="2"/>
<line x1="727" y1="972" x2="672" y2="972" stroke="#0076BE" stroke-width="2"/>
<line x1="246" y1="972" x2="148" y2="972" stroke="#0076BE" stroke-width="2" stroke-dasharray="4 4"/>
<line x1="344" y1="972" x2="246" y2="972" stroke="#0076BE" stroke-width="2"/>
<rect x="265" y="967" width="33" height="10" fill="#0076BE"/>
<rect x="727" y="967" width="33" height="10" fill="#0076BE"/>
<line x1="5" y1="4" x2="5" y2="57" stroke="#0076BE" stroke-width="2"/>
</svg>
