<svg width="393" height="730" viewBox="0 0 393 730" fill="none" xmlns="http://www.w3.org/2000/svg">
<line x1="389" y1="5" x2="332" y2="5" stroke="#0076BE" stroke-width="2"/>
<line x1="43" y1="5" x2="4" y2="5" stroke="#0076BE" stroke-width="2"/>
<line x1="5" y1="44" x2="5" y2="5" stroke="#0076BE" stroke-width="2"/>
<line x1="110" y1="5" x2="71" y2="5" stroke="#0076BE" stroke-width="2" stroke-dasharray="4 4"/>
<line x1="333" y1="5" x2="294" y2="5" stroke="#0076BE" stroke-width="2" stroke-dasharray="4 4"/>
<rect x="42" width="33" height="10" fill="#0076BE"/>
<rect x="10" y="150" width="33" height="10" transform="rotate(90 10 150)" fill="#0076BE"/>
<rect x="393" y="310" width="33" height="10" transform="rotate(90 393 310)" fill="#0076BE"/>
<rect x="10" y="660" width="33" height="10" transform="rotate(90 10 660)" fill="#0076BE"/>
<rect x="323" y="720" width="33" height="10" fill="#0076BE"/>
<rect x="393" y="657" width="33" height="10" transform="rotate(90 393 657)" fill="#0076BE"/>
<line x1="388" y1="5" x2="388" y2="58" stroke="#0076BE" stroke-width="2"/>
<line x1="5" y1="726" x2="5" y2="691" stroke="#0076BE" stroke-width="2"/>
<line x1="389" y1="725" x2="354" y2="725" stroke="#0076BE" stroke-width="2"/>
<line x1="40" y1="725" x2="5" y2="725" stroke="#0076BE" stroke-width="2" stroke-dasharray="7 7"/>
<line x1="388" y1="690" x2="388" y2="725" stroke="#0076BE" stroke-width="2" stroke-dasharray="7 7"/>
<line x1="388" y1="497" x2="388" y2="572" stroke="#0076BE" stroke-width="2"/>
<line x1="388" y1="185" x2="388" y2="310" stroke="#0076BE" stroke-width="2" stroke-dasharray="7 7"/>
<line x1="5" y1="364" x2="5" y2="439" stroke="#0076BE" stroke-width="2"/>
<line x1="5" y1="150" x2="5" y2="111" stroke="#0076BE" stroke-width="2" stroke-dasharray="7 7"/>
<line x1="288" y1="725" x2="323" y2="725" stroke="#0076BE" stroke-width="2" stroke-dasharray="7 7"/>
</svg>
