<svg width="351" height="202" viewBox="0 0 351 202" fill="none" xmlns="http://www.w3.org/2000/svg">
<rect x="250" y="10" width="33" height="10" transform="rotate(-180 250 10)" fill="#0076BE"/>
<rect x="341" y="73" width="33" height="10" transform="rotate(-90 341 73)" fill="#0076BE"/>
<rect x="178" y="143" width="33" height="10" transform="rotate(-90 178 143)" fill="#0076BE"/>
<rect y="190" width="33" height="10" transform="rotate(-90 0 190)" fill="#0076BE"/>
<rect x="61" y="100" width="33" height="10" transform="rotate(180 61 100)" fill="#0076BE"/>
<rect x="322" y="202" width="33" height="10" transform="rotate(180 322 202)" fill="#0076BE"/>
<rect x="5" y="6" width="163" height="89" stroke="#0076BE" stroke-width="2"/>
<rect x="183" y="6" width="163" height="89" stroke="#0076BE" stroke-width="2"/>
<rect x="183" y="108" width="163" height="89" stroke="#0076BE" stroke-width="2"/>
<rect x="5" y="108" width="163" height="89" stroke="#0076BE" stroke-width="2"/>
<line x1="85" y1="95" x2="85" y2="107" stroke="#0076BE" stroke-width="2"/>
<line x1="265" y1="95" x2="265" y2="107" stroke="#0076BE" stroke-width="2"/>
<line x1="169" y1="155" x2="183" y2="155" stroke="#0076BE" stroke-width="2"/>
<line x1="168" y1="51" x2="182" y2="51" stroke="#0076BE" stroke-width="2"/>
<rect x="343" y="126" width="6" height="4" fill="#2B2A2B"/>
<rect x="343" y="137" width="6" height="4" fill="#2B2A2B"/>
<rect x="343" y="148" width="6" height="4" fill="#2B2A2B"/>
<rect x="343" y="159" width="6" height="4" fill="#2B2A2B"/>
<rect x="343" y="170" width="6" height="4" fill="#2B2A2B"/>
<rect x="165" y="30" width="6" height="4" fill="#2B2A2B"/>
<rect x="165" y="41" width="6" height="4" fill="#2B2A2B"/>
<rect x="165" y="52" width="6" height="4" fill="#2B2A2B"/>
<rect x="165" y="63" width="6" height="4" fill="#2B2A2B"/>
<rect x="165" y="74" width="6" height="4" fill="#2B2A2B"/>
<rect x="137" y="195" width="6" height="4" transform="rotate(90 137 195)" fill="#2B2A2B"/>
<rect x="322" y="4.00012" width="6" height="4" transform="rotate(90 322 4.00012)" fill="#2B2A2B"/>
<rect x="126" y="195" width="6" height="4" transform="rotate(90 126 195)" fill="#2B2A2B"/>
<rect x="311" y="4.00012" width="6" height="4" transform="rotate(90 311 4.00012)" fill="#2B2A2B"/>
<rect x="115" y="195" width="6" height="4" transform="rotate(90 115 195)" fill="#2B2A2B"/>
<rect x="300" y="4" width="6" height="4" transform="rotate(90 300 4)" fill="#2B2A2B"/>
<rect x="104" y="195" width="6" height="4" transform="rotate(90 104 195)" fill="#2B2A2B"/>
<rect x="289" y="4.00012" width="6" height="4" transform="rotate(90 289 4.00012)" fill="#2B2A2B"/>
<rect x="93" y="195" width="6" height="4" transform="rotate(90 93 195)" fill="#2B2A2B"/>
<rect x="278" y="4" width="6" height="4" transform="rotate(90 278 4)" fill="#2B2A2B"/>
</svg>
