<svg width="569" height="200" viewBox="0 0 569 200" fill="none" xmlns="http://www.w3.org/2000/svg">
<line x1="285" y1="199" x2="210" y2="199" stroke="#0076BE" stroke-width="2" stroke-dasharray="7 7"/>
<line x1="565" y1="199" x2="530" y2="199" stroke="#0076BE" stroke-width="2"/>
<line x1="564" y1="163" x2="564" y2="198" stroke="#0076BE" stroke-width="2" stroke-dasharray="7 7"/>
<rect x="559" y="70" width="33" height="10" transform="rotate(-90 559 70)" fill="#0076BE"/>
<line x1="564" y1="4" x2="564" y2="39" stroke="#0076BE" stroke-width="2"/>
<line x1="529" y1="5" x2="564" y2="5" stroke="#0076BE" stroke-width="2" stroke-dasharray="7 7"/>
<rect x="70" y="10" width="33" height="10" transform="rotate(-180 70 10)" fill="#0076BE"/>
<rect y="73" width="33" height="10" transform="rotate(-90 0 73)" fill="#0076BE"/>
<line x1="4" y1="5" x2="39" y2="5" stroke="#0076BE" stroke-width="2"/>
<line x1="5" y1="100" x2="5" y2="5" stroke="#0076BE" stroke-width="2" stroke-dasharray="7 7"/>
<rect x="10" y="134" width="33" height="10" transform="rotate(90 10 134)" fill="#0076BE"/>
<line x1="5" y1="200" x2="5.00001" y2="165" stroke="#0076BE" stroke-width="2"/>
<line x1="81" y1="199" x2="5" y2="199" stroke="#0076BE" stroke-width="2"/>
<line x1="449" y1="5" x2="374" y2="5" stroke="#0076BE" stroke-width="2" stroke-dasharray="7 7"/>
<line x1="215" y1="5" x2="140" y2="5" stroke="#0076BE" stroke-width="2"/>
</svg>
