<svg width="1437" height="114" viewBox="0 0 1437 114" fill="none" xmlns="http://www.w3.org/2000/svg">
<line x1="368.25" y1="1" x2="368.25" y2="110" stroke="#0076BE" stroke-width="0.5"/>
<line x1="380.25" y1="1" x2="380.25" y2="110" stroke="#0076BE" stroke-width="0.5"/>
<line x1="392.25" y1="1" x2="392.25" y2="110" stroke="#0076BE" stroke-width="0.5"/>
<line x1="404.25" y1="1" x2="404.25" y2="110" stroke="#0076BE" stroke-width="0.5"/>
<line x1="416.25" y1="1" x2="416.25" y2="110" stroke="#0076BE" stroke-width="0.5"/>
<line x1="428.25" y1="1" x2="428.25" y2="110" stroke="#0076BE" stroke-width="0.5"/>
<line x1="440.25" y1="1" x2="440.25" y2="110" stroke="#0076BE" stroke-width="0.5"/>
<line x1="452.25" y1="1" x2="452.25" y2="110" stroke="#0076BE" stroke-width="0.5"/>
<line x1="464.25" y1="1" x2="464.25" y2="110" stroke="#0076BE" stroke-width="0.5"/>
<line x1="476.25" y1="1" x2="476.25" y2="110" stroke="#0076BE" stroke-width="0.5"/>
<line x1="488.25" y1="1" x2="488.25" y2="110" stroke="#0076BE" stroke-width="0.5"/>
<line x1="500.25" y1="1" x2="500.25" y2="110" stroke="#0076BE" stroke-width="0.5"/>
<line x1="512.25" y1="1" x2="512.25" y2="110" stroke="#0076BE" stroke-width="0.5"/>
<line x1="524.25" y1="1" x2="524.25" y2="110" stroke="#0076BE" stroke-width="0.5"/>
<line x1="536.25" y1="1" x2="536.25" y2="110" stroke="#0076BE" stroke-width="0.5"/>
<line x1="548.25" y1="1" x2="548.25" y2="110" stroke="#0076BE" stroke-width="0.5"/>
<line x1="560.25" y1="1" x2="560.25" y2="110" stroke="#0076BE" stroke-width="0.5"/>
<line x1="572.25" y1="1" x2="572.25" y2="110" stroke="#0076BE" stroke-width="0.5"/>
<line x1="584.25" y1="1" x2="584.25" y2="110" stroke="#0076BE" stroke-width="0.5"/>
<line x1="596.25" y1="1" x2="596.25" y2="110" stroke="#0076BE" stroke-width="0.5"/>
<line x1="608.25" y1="1" x2="608.25" y2="110" stroke="#0076BE" stroke-width="0.5"/>
<line x1="620.25" y1="1" x2="620.25" y2="110" stroke="#0076BE" stroke-width="0.5"/>
<line x1="632.25" y1="1" x2="632.25" y2="110" stroke="#0076BE" stroke-width="0.5"/>
<line x1="644.25" y1="1" x2="644.25" y2="110" stroke="#0076BE" stroke-width="0.5"/>
<line x1="656.25" y1="1" x2="656.25" y2="110" stroke="#0076BE" stroke-width="0.5"/>
<line x1="668.25" y1="1" x2="668.25" y2="110" stroke="#0076BE" stroke-width="0.5"/>
<line x1="680.25" y1="1" x2="680.25" y2="110" stroke="#0076BE" stroke-width="0.5"/>
<line x1="692.25" y1="1" x2="692.25" y2="110" stroke="#0076BE" stroke-width="0.5"/>
<line x1="704.25" y1="1" x2="704.25" y2="110" stroke="#0076BE" stroke-width="0.5"/>
<line x1="716.25" y1="1" x2="716.25" y2="110" stroke="#0076BE" stroke-width="0.5"/>
<line x1="728.25" y1="1" x2="728.25" y2="110" stroke="#0076BE" stroke-width="0.5"/>
<line x1="740.25" y1="1" x2="740.25" y2="110" stroke="#0076BE" stroke-width="0.5"/>
<line x1="752.25" y1="1" x2="752.25" y2="110" stroke="#0076BE" stroke-width="0.5"/>
<line x1="764.25" y1="1" x2="764.25" y2="110" stroke="#0076BE" stroke-width="0.5"/>
<line x1="776.25" y1="1" x2="776.25" y2="110" stroke="#0076BE" stroke-width="0.5"/>
<line x1="788.25" y1="1" x2="788.25" y2="110" stroke="#0076BE" stroke-width="0.5"/>
<line x1="800.25" y1="1" x2="800.25" y2="110" stroke="#0076BE" stroke-width="0.5"/>
<line x1="812.25" y1="1" x2="812.25" y2="110" stroke="#0076BE" stroke-width="0.5"/>
<line x1="824.25" y1="1" x2="824.25" y2="110" stroke="#0076BE" stroke-width="0.5"/>
<line x1="836.25" y1="1" x2="836.25" y2="110" stroke="#0076BE" stroke-width="0.5"/>
<line x1="848.25" y1="1" x2="848.25" y2="110" stroke="#0076BE" stroke-width="0.5"/>
<line x1="860.25" y1="1" x2="860.25" y2="110" stroke="#0076BE" stroke-width="0.5"/>
<line x1="872.25" y1="1" x2="872.25" y2="110" stroke="#0076BE" stroke-width="0.5"/>
<line x1="884.25" y1="1" x2="884.25" y2="110" stroke="#0076BE" stroke-width="0.5"/>
<line x1="896.25" y1="1" x2="896.25" y2="110" stroke="#0076BE" stroke-width="0.5"/>
<line x1="908.25" y1="1.09278e-08" x2="908.25" y2="113" stroke="#0076BE" stroke-width="0.5"/>
<line x1="920.25" y1="1.09278e-08" x2="920.25" y2="113" stroke="#0076BE" stroke-width="0.5"/>
<line x1="932.25" y1="1.09278e-08" x2="932.25" y2="113" stroke="#0076BE" stroke-width="0.5"/>
<line x1="944.25" y1="1.09278e-08" x2="944.25" y2="113" stroke="#0076BE" stroke-width="0.5"/>
<line x1="956.25" y1="1.09278e-08" x2="956.25" y2="113" stroke="#0076BE" stroke-width="0.5"/>
<line x1="968.25" y1="1.09278e-08" x2="968.25" y2="113" stroke="#0076BE" stroke-width="0.5"/>
<line x1="980.25" y1="1.09278e-08" x2="980.25" y2="113" stroke="#0076BE" stroke-width="0.5"/>
<line x1="992.25" y1="1.09278e-08" x2="992.25" y2="113" stroke="#0076BE" stroke-width="0.5"/>
<line x1="1004.25" y1="1.09278e-08" x2="1004.25" y2="113" stroke="#0076BE" stroke-width="0.5"/>
<line x1="1016.25" y1="1.09278e-08" x2="1016.25" y2="113" stroke="#0076BE" stroke-width="0.5"/>
<line x1="1028.25" y1="1.09278e-08" x2="1028.25" y2="113" stroke="#0076BE" stroke-width="0.5"/>
<line x1="1040.25" y1="1.09278e-08" x2="1040.25" y2="113" stroke="#0076BE" stroke-width="0.5"/>
<line x1="1052.25" y1="1.09278e-08" x2="1052.25" y2="113" stroke="#0076BE" stroke-width="0.5"/>
<line x1="1064.25" y1="1.09278e-08" x2="1064.25" y2="113" stroke="#0076BE" stroke-width="0.5"/>
<line x1="1076.25" y1="1.09278e-08" x2="1076.25" y2="113" stroke="#0076BE" stroke-width="0.5"/>
<line x1="1088.25" y1="1" x2="1088.25" y2="111" stroke="#0076BE" stroke-width="0.5"/>
<line x1="1100.25" y1="1" x2="1100.25" y2="111" stroke="#0076BE" stroke-width="0.5"/>
<line x1="1112.25" y1="1" x2="1112.25" y2="111" stroke="#0076BE" stroke-width="0.5"/>
<line x1="1124.25" y1="1" x2="1124.25" y2="111" stroke="#0076BE" stroke-width="0.5"/>
<line x1="1136.25" y1="1" x2="1136.25" y2="111" stroke="#0076BE" stroke-width="0.5"/>
<line x1="1148.25" y1="1" x2="1148.25" y2="111" stroke="#0076BE" stroke-width="0.5"/>
<line x1="1160.25" y1="1" x2="1160.25" y2="111" stroke="#0076BE" stroke-width="0.5"/>
<line x1="1172.25" y1="1" x2="1172.25" y2="111" stroke="#0076BE" stroke-width="0.5"/>
<line x1="1184.25" y1="1" x2="1184.25" y2="111" stroke="#0076BE" stroke-width="0.5"/>
<line x1="1196.25" y1="1" x2="1196.25" y2="111" stroke="#0076BE" stroke-width="0.5"/>
<line x1="1208.25" y1="1" x2="1208.25" y2="111" stroke="#0076BE" stroke-width="0.5"/>
<line x1="1220.25" y1="1" x2="1220.25" y2="111" stroke="#0076BE" stroke-width="0.5"/>
<line x1="1232.25" y1="1" x2="1232.25" y2="111" stroke="#0076BE" stroke-width="0.5"/>
<line x1="1244.25" y1="1" x2="1244.25" y2="111" stroke="#0076BE" stroke-width="0.5"/>
<line x1="1256.25" y1="1" x2="1256.25" y2="111" stroke="#0076BE" stroke-width="0.5"/>
<line x1="1268.25" y1="1.09278e-08" x2="1268.25" y2="114" stroke="#0076BE" stroke-width="0.5"/>
<line x1="1280.25" y1="1.09278e-08" x2="1280.25" y2="114" stroke="#0076BE" stroke-width="0.5"/>
<line x1="1292.25" y1="1.09278e-08" x2="1292.25" y2="114" stroke="#0076BE" stroke-width="0.5"/>
<line x1="1304.25" y1="1.09278e-08" x2="1304.25" y2="114" stroke="#0076BE" stroke-width="0.5"/>
<line x1="1316.25" y1="1.09278e-08" x2="1316.25" y2="114" stroke="#0076BE" stroke-width="0.5"/>
<line x1="1328.25" y1="1.09278e-08" x2="1328.25" y2="114" stroke="#0076BE" stroke-width="0.5"/>
<line x1="1340.25" y1="1.09278e-08" x2="1340.25" y2="114" stroke="#0076BE" stroke-width="0.5"/>
<line x1="1352.25" y1="1.09278e-08" x2="1352.25" y2="114" stroke="#0076BE" stroke-width="0.5"/>
<line x1="1364.25" y1="1.09278e-08" x2="1364.25" y2="114" stroke="#0076BE" stroke-width="0.5"/>
<line x1="1376.25" y1="1.09278e-08" x2="1376.25" y2="114" stroke="#0076BE" stroke-width="0.5"/>
<line x1="1388.25" y1="1.09278e-08" x2="1388.25" y2="114" stroke="#0076BE" stroke-width="0.5"/>
<line x1="1400.25" y1="1.09278e-08" x2="1400.25" y2="114" stroke="#0076BE" stroke-width="0.5"/>
<line x1="1412.25" y1="1.09278e-08" x2="1412.25" y2="114" stroke="#0076BE" stroke-width="0.5"/>
<line x1="1424.25" y1="1.09278e-08" x2="1424.25" y2="114" stroke="#0076BE" stroke-width="0.5"/>
<line x1="1436.25" y1="1.09278e-08" x2="1436.25" y2="114" stroke="#0076BE" stroke-width="0.5"/>
<line x1="-4" y1="3.75" x2="183" y2="3.75" stroke="#0076BE" stroke-width="0.5"/>
<line x1="-4" y1="15.75" x2="183" y2="15.75" stroke="#0076BE" stroke-width="0.5"/>
<line x1="-4" y1="27.7499" x2="183" y2="27.7499" stroke="#0076BE" stroke-width="0.5"/>
<line x1="-4" y1="39.75" x2="183" y2="39.75" stroke="#0076BE" stroke-width="0.5"/>
<line x1="-4" y1="51.75" x2="183" y2="51.75" stroke="#0076BE" stroke-width="0.5"/>
<line x1="-4" y1="63.75" x2="183" y2="63.75" stroke="#0076BE" stroke-width="0.5"/>
<line x1="-4" y1="75.75" x2="183" y2="75.75" stroke="#0076BE" stroke-width="0.5"/>
<line x1="-4" y1="87.75" x2="183" y2="87.75" stroke="#0076BE" stroke-width="0.5"/>
<line x1="-4" y1="99.75" x2="183" y2="99.75" stroke="#0076BE" stroke-width="0.5"/>
<line x1="176" y1="3.75" x2="363" y2="3.75" stroke="#0076BE" stroke-width="0.5"/>
<line x1="176" y1="15.75" x2="363" y2="15.75" stroke="#0076BE" stroke-width="0.5"/>
<line x1="176" y1="27.7499" x2="363" y2="27.7499" stroke="#0076BE" stroke-width="0.5"/>
<line x1="176" y1="39.75" x2="363" y2="39.75" stroke="#0076BE" stroke-width="0.5"/>
<line x1="176" y1="51.75" x2="363" y2="51.75" stroke="#0076BE" stroke-width="0.5"/>
<line x1="176" y1="63.75" x2="363" y2="63.75" stroke="#0076BE" stroke-width="0.5"/>
<line x1="176" y1="75.75" x2="363" y2="75.75" stroke="#0076BE" stroke-width="0.5"/>
<line x1="176" y1="87.75" x2="363" y2="87.75" stroke="#0076BE" stroke-width="0.5"/>
<line x1="176" y1="99.75" x2="363" y2="99.75" stroke="#0076BE" stroke-width="0.5"/>
<line x1="356" y1="3.75" x2="543" y2="3.75" stroke="#0076BE" stroke-width="0.5"/>
<line x1="356" y1="15.75" x2="543" y2="15.75" stroke="#0076BE" stroke-width="0.5"/>
<line x1="356" y1="27.7499" x2="543" y2="27.7499" stroke="#0076BE" stroke-width="0.5"/>
<line x1="356" y1="39.75" x2="543" y2="39.75" stroke="#0076BE" stroke-width="0.5"/>
<line x1="356" y1="51.75" x2="543" y2="51.75" stroke="#0076BE" stroke-width="0.5"/>
<line x1="356" y1="63.75" x2="543" y2="63.75" stroke="#0076BE" stroke-width="0.5"/>
<line x1="356" y1="75.75" x2="543" y2="75.75" stroke="#0076BE" stroke-width="0.5"/>
<line x1="356" y1="87.75" x2="543" y2="87.75" stroke="#0076BE" stroke-width="0.5"/>
<line x1="356" y1="99.75" x2="543" y2="99.75" stroke="#0076BE" stroke-width="0.5"/>
<line x1="536" y1="3.75" x2="723" y2="3.75" stroke="#0076BE" stroke-width="0.5"/>
<line x1="536" y1="15.75" x2="723" y2="15.75" stroke="#0076BE" stroke-width="0.5"/>
<line x1="536" y1="27.7499" x2="723" y2="27.7499" stroke="#0076BE" stroke-width="0.5"/>
<line x1="536" y1="39.75" x2="723" y2="39.75" stroke="#0076BE" stroke-width="0.5"/>
<line x1="536" y1="51.75" x2="723" y2="51.75" stroke="#0076BE" stroke-width="0.5"/>
<line x1="536" y1="63.75" x2="723" y2="63.75" stroke="#0076BE" stroke-width="0.5"/>
<line x1="536" y1="75.75" x2="723" y2="75.75" stroke="#0076BE" stroke-width="0.5"/>
<line x1="536" y1="87.75" x2="723" y2="87.75" stroke="#0076BE" stroke-width="0.5"/>
<line x1="536" y1="99.75" x2="723" y2="99.75" stroke="#0076BE" stroke-width="0.5"/>
<line x1="716" y1="3.75" x2="903" y2="3.75" stroke="#0076BE" stroke-width="0.5"/>
<line x1="716" y1="15.75" x2="903" y2="15.75" stroke="#0076BE" stroke-width="0.5"/>
<line x1="716" y1="27.7499" x2="903" y2="27.7499" stroke="#0076BE" stroke-width="0.5"/>
<line x1="716" y1="39.75" x2="903" y2="39.75" stroke="#0076BE" stroke-width="0.5"/>
<line x1="716" y1="51.75" x2="903" y2="51.75" stroke="#0076BE" stroke-width="0.5"/>
<line x1="716" y1="63.75" x2="903" y2="63.75" stroke="#0076BE" stroke-width="0.5"/>
<line x1="716" y1="75.75" x2="903" y2="75.75" stroke="#0076BE" stroke-width="0.5"/>
<line x1="716" y1="87.75" x2="903" y2="87.75" stroke="#0076BE" stroke-width="0.5"/>
<line x1="716" y1="99.75" x2="903" y2="99.75" stroke="#0076BE" stroke-width="0.5"/>
<line x1="896" y1="3.75" x2="1083" y2="3.75" stroke="#0076BE" stroke-width="0.5"/>
<line x1="896" y1="15.75" x2="1083" y2="15.75" stroke="#0076BE" stroke-width="0.5"/>
<line x1="896" y1="27.7499" x2="1083" y2="27.7499" stroke="#0076BE" stroke-width="0.5"/>
<line x1="896" y1="39.75" x2="1083" y2="39.75" stroke="#0076BE" stroke-width="0.5"/>
<line x1="896" y1="51.75" x2="1083" y2="51.75" stroke="#0076BE" stroke-width="0.5"/>
<line x1="896" y1="63.75" x2="1083" y2="63.75" stroke="#0076BE" stroke-width="0.5"/>
<line x1="896" y1="75.75" x2="1083" y2="75.75" stroke="#0076BE" stroke-width="0.5"/>
<line x1="896" y1="87.75" x2="1083" y2="87.75" stroke="#0076BE" stroke-width="0.5"/>
<line x1="896" y1="99.75" x2="1083" y2="99.75" stroke="#0076BE" stroke-width="0.5"/>
<line x1="1076" y1="3.75" x2="1263" y2="3.75" stroke="#0076BE" stroke-width="0.5"/>
<line x1="1076" y1="15.75" x2="1263" y2="15.75" stroke="#0076BE" stroke-width="0.5"/>
<line x1="1076" y1="27.7499" x2="1263" y2="27.7499" stroke="#0076BE" stroke-width="0.5"/>
<line x1="1076" y1="39.75" x2="1263" y2="39.75" stroke="#0076BE" stroke-width="0.5"/>
<line x1="1076" y1="51.75" x2="1263" y2="51.75" stroke="#0076BE" stroke-width="0.5"/>
<line x1="1076" y1="63.75" x2="1263" y2="63.75" stroke="#0076BE" stroke-width="0.5"/>
<line x1="1076" y1="75.75" x2="1263" y2="75.75" stroke="#0076BE" stroke-width="0.5"/>
<line x1="1076" y1="87.75" x2="1263" y2="87.75" stroke="#0076BE" stroke-width="0.5"/>
<line x1="1076" y1="99.75" x2="1263" y2="99.75" stroke="#0076BE" stroke-width="0.5"/>
<line x1="188.25" y1="1" x2="188.25" y2="110" stroke="#0076BE" stroke-width="0.5"/>
<line x1="200.25" y1="1" x2="200.25" y2="110" stroke="#0076BE" stroke-width="0.5"/>
<line x1="212.25" y1="1" x2="212.25" y2="110" stroke="#0076BE" stroke-width="0.5"/>
<line x1="224.25" y1="1" x2="224.25" y2="110" stroke="#0076BE" stroke-width="0.5"/>
<line x1="236.25" y1="1" x2="236.25" y2="110" stroke="#0076BE" stroke-width="0.5"/>
<line x1="248.25" y1="1" x2="248.25" y2="110" stroke="#0076BE" stroke-width="0.5"/>
<line x1="260.25" y1="1" x2="260.25" y2="110" stroke="#0076BE" stroke-width="0.5"/>
<line x1="272.25" y1="1" x2="272.25" y2="110" stroke="#0076BE" stroke-width="0.5"/>
<line x1="284.25" y1="1" x2="284.25" y2="110" stroke="#0076BE" stroke-width="0.5"/>
<line x1="296.25" y1="1" x2="296.25" y2="110" stroke="#0076BE" stroke-width="0.5"/>
<line x1="308.25" y1="1" x2="308.25" y2="110" stroke="#0076BE" stroke-width="0.5"/>
<line x1="320.25" y1="1" x2="320.25" y2="110" stroke="#0076BE" stroke-width="0.5"/>
<line x1="332.25" y1="1" x2="332.25" y2="110" stroke="#0076BE" stroke-width="0.5"/>
<line x1="344.25" y1="1" x2="344.25" y2="110" stroke="#0076BE" stroke-width="0.5"/>
<line x1="356.25" y1="1" x2="356.25" y2="110" stroke="#0076BE" stroke-width="0.5"/>
<line x1="8.25" y1="1" x2="8.25" y2="112" stroke="#0076BE" stroke-width="0.5"/>
<line x1="20.25" y1="1" x2="20.25" y2="112" stroke="#0076BE" stroke-width="0.5"/>
<line x1="32.25" y1="1" x2="32.25" y2="112" stroke="#0076BE" stroke-width="0.5"/>
<line x1="44.25" y1="1" x2="44.25" y2="112" stroke="#0076BE" stroke-width="0.5"/>
<line x1="56.25" y1="1" x2="56.25" y2="112" stroke="#0076BE" stroke-width="0.5"/>
<line x1="68.25" y1="1" x2="68.25" y2="112" stroke="#0076BE" stroke-width="0.5"/>
<line x1="80.25" y1="1" x2="80.25" y2="112" stroke="#0076BE" stroke-width="0.5"/>
<line x1="92.25" y1="1" x2="92.25" y2="112" stroke="#0076BE" stroke-width="0.5"/>
<line x1="104.25" y1="1" x2="104.25" y2="112" stroke="#0076BE" stroke-width="0.5"/>
<line x1="116.25" y1="1" x2="116.25" y2="112" stroke="#0076BE" stroke-width="0.5"/>
<line x1="128.25" y1="1" x2="128.25" y2="112" stroke="#0076BE" stroke-width="0.5"/>
<line x1="140.25" y1="1" x2="140.25" y2="112" stroke="#0076BE" stroke-width="0.5"/>
<line x1="152.25" y1="1" x2="152.25" y2="112" stroke="#0076BE" stroke-width="0.5"/>
<line x1="164.25" y1="1" x2="164.25" y2="112" stroke="#0076BE" stroke-width="0.5"/>
<line x1="176.25" y1="1" x2="176.25" y2="112" stroke="#0076BE" stroke-width="0.5"/>
<line x1="1256" y1="3.75" x2="1435" y2="3.75" stroke="#0076BE" stroke-width="0.5"/>
<line x1="1256" y1="15.75" x2="1435" y2="15.75" stroke="#0076BE" stroke-width="0.5"/>
<line x1="1256" y1="27.7499" x2="1435" y2="27.7499" stroke="#0076BE" stroke-width="0.5"/>
<line x1="1256" y1="39.75" x2="1435" y2="39.75" stroke="#0076BE" stroke-width="0.5"/>
<line x1="1256" y1="51.75" x2="1435" y2="51.75" stroke="#0076BE" stroke-width="0.5"/>
<line x1="1256" y1="63.75" x2="1435" y2="63.75" stroke="#0076BE" stroke-width="0.5"/>
<line x1="1256" y1="75.75" x2="1435" y2="75.75" stroke="#0076BE" stroke-width="0.5"/>
<line x1="1256" y1="87.75" x2="1435" y2="87.75" stroke="#0076BE" stroke-width="0.5"/>
<line x1="1256" y1="99.75" x2="1435" y2="99.75" stroke="#0076BE" stroke-width="0.5"/>
</svg>
