<svg width="357" height="209" viewBox="0 0 357 209" fill="none" xmlns="http://www.w3.org/2000/svg">
<line x1="23.4092" y1="0.593201" x2="23.4092" y2="209" stroke="#0076BE"/>
<line x1="46.3184" y1="0.593201" x2="46.3183" y2="209" stroke="#0076BE"/>
<line x1="69.2275" y1="0.593201" x2="69.2275" y2="209" stroke="#0076BE"/>
<line x1="92.1367" y1="0.593201" x2="92.1367" y2="209" stroke="#0076BE"/>
<line x1="115.045" y1="0.593201" x2="115.045" y2="209" stroke="#0076BE"/>
<line x1="137.954" y1="0.593201" x2="137.954" y2="209" stroke="#0076BE"/>
<line x1="160.863" y1="0.593201" x2="160.863" y2="209" stroke="#0076BE"/>
<line x1="183.773" y1="0.593201" x2="183.773" y2="209" stroke="#0076BE"/>
<line x1="206.682" y1="0.593201" x2="206.682" y2="209" stroke="#0076BE"/>
<line x1="229.591" y1="0.593201" x2="229.591" y2="209" stroke="#0076BE"/>
<line x1="252.5" y1="0.593201" x2="252.5" y2="209" stroke="#0076BE"/>
<line x1="275.409" y1="0.593201" x2="275.409" y2="209" stroke="#0076BE"/>
<line x1="298.318" y1="0.593201" x2="298.318" y2="209" stroke="#0076BE"/>
<line x1="321.228" y1="0.593201" x2="321.228" y2="209" stroke="#0076BE"/>
<line x1="344.136" y1="0.593201" x2="344.136" y2="209" stroke="#0076BE"/>
<line y1="21.9794" x2="357" y2="21.9794" stroke="#0076BE"/>
<line y1="44.9794" x2="357" y2="44.9794" stroke="#0076BE"/>
<line y1="67.9794" x2="357" y2="67.9794" stroke="#0076BE"/>
<line y1="90.9794" x2="357" y2="90.9794" stroke="#0076BE"/>
<line y1="113.979" x2="357" y2="113.979" stroke="#0076BE"/>
<line y1="136.979" x2="357" y2="136.979" stroke="#0076BE"/>
<line y1="159.979" x2="357" y2="159.979" stroke="#0076BE"/>
<line y1="182.979" x2="357" y2="182.979" stroke="#0076BE"/>
<line y1="205.979" x2="357" y2="205.979" stroke="#0076BE"/>
</svg>
