<svg width="316" height="129" viewBox="0 0 316 129" fill="none" xmlns="http://www.w3.org/2000/svg">
<rect x="316" y="129" width="316" height="129" transform="rotate(-180 316 129)" fill="#0076BE" fill-opacity="0.05"/>
<line x1="3.01074" y1="2.7576" x2="3.01074" y2="125" stroke="#0076BE" stroke-width="0.5"/>
<line x1="14.0557" y1="2.7576" x2="14.0557" y2="125" stroke="#0076BE" stroke-width="0.5"/>
<line x1="25.1006" y1="2.7576" x2="25.1006" y2="125" stroke="#0076BE" stroke-width="0.5"/>
<line x1="36.1465" y1="2.7576" x2="36.1465" y2="125" stroke="#0076BE" stroke-width="0.5"/>
<line x1="47.1914" y1="2.7576" x2="47.1914" y2="125" stroke="#0076BE" stroke-width="0.5"/>
<line x1="58.2363" y1="2.7576" x2="58.2363" y2="125" stroke="#0076BE" stroke-width="0.5"/>
<line x1="69.2812" y1="2.7576" x2="69.2812" y2="125" stroke="#0076BE" stroke-width="0.5"/>
<line x1="80.3262" y1="2.7576" x2="80.3262" y2="125" stroke="#0076BE" stroke-width="0.5"/>
<line x1="91.3711" y1="2.7576" x2="91.3711" y2="125" stroke="#0076BE" stroke-width="0.5"/>
<line x1="102.416" y1="2.7576" x2="102.416" y2="125" stroke="#0076BE" stroke-width="0.5"/>
<line x1="113.462" y1="2.7576" x2="113.462" y2="125" stroke="#0076BE" stroke-width="0.5"/>
<line x1="124.507" y1="2.7576" x2="124.507" y2="125" stroke="#0076BE" stroke-width="0.5"/>
<line x1="135.551" y1="2.7576" x2="135.551" y2="125" stroke="#0076BE" stroke-width="0.5"/>
<line x1="146.597" y1="2.7576" x2="146.597" y2="125" stroke="#0076BE" stroke-width="0.5"/>
<line x1="157.642" y1="2.7576" x2="157.642" y2="125" stroke="#0076BE" stroke-width="0.5"/>
<line x1="168.688" y1="2.7576" x2="168.688" y2="125" stroke="#0076BE" stroke-width="0.5"/>
<line x1="179.733" y1="2.7576" x2="179.733" y2="125" stroke="#0076BE" stroke-width="0.5"/>
<line x1="190.778" y1="2.7576" x2="190.778" y2="125" stroke="#0076BE" stroke-width="0.5"/>
<line x1="201.823" y1="2.7576" x2="201.823" y2="125" stroke="#0076BE" stroke-width="0.5"/>
<line x1="212.868" y1="2.7576" x2="212.868" y2="125" stroke="#0076BE" stroke-width="0.5"/>
<line x1="223.913" y1="2.7576" x2="223.913" y2="125" stroke="#0076BE" stroke-width="0.5"/>
<line x1="234.958" y1="2.7576" x2="234.958" y2="125" stroke="#0076BE" stroke-width="0.5"/>
<line x1="246.004" y1="2.7576" x2="246.004" y2="125" stroke="#0076BE" stroke-width="0.5"/>
<line x1="257.049" y1="2.7576" x2="257.049" y2="125" stroke="#0076BE" stroke-width="0.5"/>
<line x1="268.094" y1="2.7576" x2="268.094" y2="125" stroke="#0076BE" stroke-width="0.5"/>
<line x1="279.139" y1="2.7576" x2="279.139" y2="125" stroke="#0076BE" stroke-width="0.5"/>
<line x1="290.184" y1="2.7576" x2="290.184" y2="125" stroke="#0076BE" stroke-width="0.5"/>
<line x1="301.229" y1="2.7576" x2="301.229" y2="125" stroke="#0076BE" stroke-width="0.5"/>
<line x1="312.273" y1="2.7576" x2="312.273" y2="125" stroke="#0076BE" stroke-width="0.5"/>
<line x1="2.76172" y1="3.4268" x2="313.865" y2="3.4268" stroke="#0076BE" stroke-width="0.5"/>
<line x1="2.76172" y1="14.4571" x2="313.865" y2="14.4571" stroke="#0076BE" stroke-width="0.5"/>
<line x1="2.76172" y1="25.4874" x2="313.865" y2="25.4874" stroke="#0076BE" stroke-width="0.5"/>
<line x1="2.76172" y1="36.5177" x2="313.865" y2="36.5177" stroke="#0076BE" stroke-width="0.5"/>
<line x1="2.76172" y1="47.548" x2="313.865" y2="47.548" stroke="#0076BE" stroke-width="0.5"/>
<line x1="2.76172" y1="58.5783" x2="313.865" y2="58.5783" stroke="#0076BE" stroke-width="0.5"/>
<line x1="2.76172" y1="69.6086" x2="313.865" y2="69.6086" stroke="#0076BE" stroke-width="0.5"/>
<line x1="2.76172" y1="80.6389" x2="313.865" y2="80.6389" stroke="#0076BE" stroke-width="0.5"/>
<line x1="2.76172" y1="91.6692" x2="313.865" y2="91.6692" stroke="#0076BE" stroke-width="0.5"/>
<line x1="1" y1="91.75" x2="312.103" y2="91.75" stroke="#0076BE" stroke-width="0.5"/>
<line x1="1" y1="102.78" x2="312.103" y2="102.78" stroke="#0076BE" stroke-width="0.5"/>
<line x1="1" y1="113.811" x2="312.103" y2="113.811" stroke="#0076BE" stroke-width="0.5"/>
<line x1="1" y1="124.841" x2="312.103" y2="124.841" stroke="#0076BE" stroke-width="0.5"/>
</svg>
