<svg width="317" height="152" viewBox="0 0 317 152" fill="none" xmlns="http://www.w3.org/2000/svg">
<g filter="url(#filter0_b_358_206)">
<rect x="316.353" y="151.374" width="312.944" height="150.747" transform="rotate(-180 316.353 151.374)" fill="url(#paint0_linear_358_206)"/>
</g>
<rect x="316.353" y="151.374" width="315.705" height="150.747" transform="rotate(-180 316.353 151.374)" fill="#0076BE" fill-opacity="0.05"/>
<line x1="3.65918" y1="3.38385" x2="3.65917" y2="151.374" stroke="#0076BE" stroke-width="0.5"/>
<line x1="14.7041" y1="3.38385" x2="14.7041" y2="151.374" stroke="#0076BE" stroke-width="0.5"/>
<line x1="25.749" y1="3.38385" x2="25.749" y2="151.374" stroke="#0076BE" stroke-width="0.5"/>
<line x1="36.7949" y1="3.38385" x2="36.7949" y2="151.374" stroke="#0076BE" stroke-width="0.5"/>
<line x1="47.8389" y1="3.38385" x2="47.8389" y2="151.374" stroke="#0076BE" stroke-width="0.5"/>
<line x1="58.8848" y1="3.38385" x2="58.8848" y2="151.374" stroke="#0076BE" stroke-width="0.5"/>
<line x1="69.9297" y1="3.38385" x2="69.9297" y2="151.374" stroke="#0076BE" stroke-width="0.5"/>
<line x1="80.9746" y1="3.38385" x2="80.9746" y2="151.374" stroke="#0076BE" stroke-width="0.5"/>
<line x1="92.0195" y1="3.38385" x2="92.0195" y2="151.374" stroke="#0076BE" stroke-width="0.5"/>
<line x1="103.064" y1="3.38385" x2="103.064" y2="151.374" stroke="#0076BE" stroke-width="0.5"/>
<line x1="114.109" y1="3.38385" x2="114.109" y2="151.374" stroke="#0076BE" stroke-width="0.5"/>
<line x1="125.155" y1="3.38385" x2="125.155" y2="151.374" stroke="#0076BE" stroke-width="0.5"/>
<line x1="136.2" y1="3.38385" x2="136.2" y2="151.374" stroke="#0076BE" stroke-width="0.5"/>
<line x1="147.245" y1="3.38385" x2="147.245" y2="151.374" stroke="#0076BE" stroke-width="0.5"/>
<line x1="158.29" y1="3.38385" x2="158.29" y2="151.374" stroke="#0076BE" stroke-width="0.5"/>
<line x1="169.335" y1="3.38385" x2="169.335" y2="151.374" stroke="#0076BE" stroke-width="0.5"/>
<line x1="180.38" y1="3.38385" x2="180.38" y2="151.374" stroke="#0076BE" stroke-width="0.5"/>
<line x1="191.425" y1="3.38385" x2="191.425" y2="151.374" stroke="#0076BE" stroke-width="0.5"/>
<line x1="202.471" y1="3.38385" x2="202.471" y2="151.374" stroke="#0076BE" stroke-width="0.5"/>
<line x1="213.516" y1="3.38385" x2="213.516" y2="151.374" stroke="#0076BE" stroke-width="0.5"/>
<line x1="224.561" y1="3.38385" x2="224.561" y2="151.374" stroke="#0076BE" stroke-width="0.5"/>
<line x1="235.605" y1="3.38385" x2="235.605" y2="151.374" stroke="#0076BE" stroke-width="0.5"/>
<line x1="246.65" y1="3.38385" x2="246.65" y2="151.374" stroke="#0076BE" stroke-width="0.5"/>
<line x1="257.695" y1="3.38385" x2="257.695" y2="151.374" stroke="#0076BE" stroke-width="0.5"/>
<line x1="268.741" y1="3.38385" x2="268.741" y2="151.374" stroke="#0076BE" stroke-width="0.5"/>
<line x1="279.786" y1="3.38385" x2="279.786" y2="151.374" stroke="#0076BE" stroke-width="0.5"/>
<line x1="290.831" y1="3.38385" x2="290.831" y2="151.374" stroke="#0076BE" stroke-width="0.5"/>
<line x1="301.876" y1="3.38385" x2="301.876" y2="151.374" stroke="#0076BE" stroke-width="0.5"/>
<line x1="312.921" y1="3.38385" x2="312.921" y2="151.374" stroke="#0076BE" stroke-width="0.5"/>
<line x1="3.40918" y1="4.05305" x2="314.512" y2="4.05305" stroke="#0076BE" stroke-width="0.5"/>
<line x1="3.40918" y1="15.0834" x2="314.512" y2="15.0834" stroke="#0076BE" stroke-width="0.5"/>
<line x1="3.40918" y1="26.1137" x2="314.512" y2="26.1137" stroke="#0076BE" stroke-width="0.5"/>
<line x1="3.40918" y1="37.144" x2="314.512" y2="37.144" stroke="#0076BE" stroke-width="0.5"/>
<line x1="3.40918" y1="48.1743" x2="314.512" y2="48.1743" stroke="#0076BE" stroke-width="0.5"/>
<line x1="3.40918" y1="59.2046" x2="314.512" y2="59.2046" stroke="#0076BE" stroke-width="0.5"/>
<line x1="3.40918" y1="70.2349" x2="314.512" y2="70.2349" stroke="#0076BE" stroke-width="0.5"/>
<line x1="3.40918" y1="81.2652" x2="314.512" y2="81.2652" stroke="#0076BE" stroke-width="0.5"/>
<line x1="3.40918" y1="92.2955" x2="314.512" y2="92.2955" stroke="#0076BE" stroke-width="0.5"/>
<line x1="3.42285" y1="103.326" x2="314.965" y2="103.326" stroke="#0076BE" stroke-width="0.5"/>
<line x1="3.42285" y1="114.356" x2="314.965" y2="114.356" stroke="#0076BE" stroke-width="0.5"/>
<line x1="3.42285" y1="125.386" x2="314.965" y2="125.386" stroke="#0076BE" stroke-width="0.5"/>
<line x1="3.42285" y1="136.417" x2="314.965" y2="136.417" stroke="#0076BE" stroke-width="0.5"/>
<line x1="3.42285" y1="147.447" x2="314.965" y2="147.447" stroke="#0076BE" stroke-width="0.5"/>
<defs>
<filter id="filter0_b_358_206" x="-0.591797" y="-3.37379" width="320.944" height="158.747" filterUnits="userSpaceOnUse" color-interpolation-filters="sRGB">
<feFlood flood-opacity="0" result="BackgroundImageFix"/>
<feGaussianBlur in="BackgroundImageFix" stdDeviation="2"/>
<feComposite in2="SourceAlpha" operator="in" result="effect1_backgroundBlur_358_206"/>
<feBlend mode="normal" in="SourceGraphic" in2="effect1_backgroundBlur_358_206" result="shape"/>
</filter>
<linearGradient id="paint0_linear_358_206" x1="472.824" y1="151.374" x2="472.824" y2="302.121" gradientUnits="userSpaceOnUse">
<stop stop-color="#0076BE" stop-opacity="0.22"/>
<stop offset="1" stop-color="#2B2A2B" stop-opacity="0"/>
</linearGradient>
</defs>
</svg>
