<svg width="187" height="112" viewBox="0 0 187 112" fill="none" xmlns="http://www.w3.org/2000/svg">
<line x1="12.25" y1="1.09278e-08" x2="12.25" y2="112" stroke="#0076BE" stroke-width="0.5"/>
<line x1="24.25" y1="1.09278e-08" x2="24.25" y2="112" stroke="#0076BE" stroke-width="0.5"/>
<line x1="36.25" y1="1.09278e-08" x2="36.25" y2="112" stroke="#0076BE" stroke-width="0.5"/>
<line x1="48.25" y1="1.09278e-08" x2="48.25" y2="112" stroke="#0076BE" stroke-width="0.5"/>
<line x1="60.25" y1="1.09278e-08" x2="60.25" y2="112" stroke="#0076BE" stroke-width="0.5"/>
<line x1="72.25" y1="1.09278e-08" x2="72.25" y2="112" stroke="#0076BE" stroke-width="0.5"/>
<line x1="84.25" y1="1.09278e-08" x2="84.25" y2="112" stroke="#0076BE" stroke-width="0.5"/>
<line x1="96.25" y1="1.09278e-08" x2="96.25" y2="112" stroke="#0076BE" stroke-width="0.5"/>
<line x1="108.25" y1="1.09278e-08" x2="108.25" y2="112" stroke="#0076BE" stroke-width="0.5"/>
<line x1="120.25" y1="1.09278e-08" x2="120.25" y2="112" stroke="#0076BE" stroke-width="0.5"/>
<line x1="132.25" y1="1.09278e-08" x2="132.25" y2="112" stroke="#0076BE" stroke-width="0.5"/>
<line x1="144.25" y1="1.09278e-08" x2="144.25" y2="112" stroke="#0076BE" stroke-width="0.5"/>
<line x1="156.25" y1="1.09278e-08" x2="156.25" y2="112" stroke="#0076BE" stroke-width="0.5"/>
<line x1="168.25" y1="1.09278e-08" x2="168.25" y2="112" stroke="#0076BE" stroke-width="0.5"/>
<line x1="180.25" y1="1.09278e-08" x2="180.25" y2="112" stroke="#0076BE" stroke-width="0.5"/>
<line y1="7.75" x2="187" y2="7.75" stroke="#0076BE" stroke-width="0.5"/>
<line y1="19.75" x2="187" y2="19.75" stroke="#0076BE" stroke-width="0.5"/>
<line y1="31.75" x2="187" y2="31.75" stroke="#0076BE" stroke-width="0.5"/>
<line y1="43.75" x2="187" y2="43.75" stroke="#0076BE" stroke-width="0.5"/>
<line y1="55.75" x2="187" y2="55.75" stroke="#0076BE" stroke-width="0.5"/>
<line y1="67.75" x2="187" y2="67.75" stroke="#0076BE" stroke-width="0.5"/>
<line y1="79.75" x2="187" y2="79.75" stroke="#0076BE" stroke-width="0.5"/>
<line y1="91.75" x2="187" y2="91.75" stroke="#0076BE" stroke-width="0.5"/>
<line y1="103.75" x2="187" y2="103.75" stroke="#0076BE" stroke-width="0.5"/>
</svg>
