<svg width="677" height="49" viewBox="0 0 677 49" fill="none" xmlns="http://www.w3.org/2000/svg">
<g filter="url(#filter0_b_355_149)">
<rect x="677" y="48" width="675.955" height="48" transform="rotate(-180 677 48)" fill="url(#paint0_linear_355_149)"/>
</g>
<line x1="1.30273" y1="2.75757" x2="1.30273" y2="48" stroke="#0076BE"/>
<line x1="12.709" y1="2.75757" x2="12.709" y2="48" stroke="#0076BE"/>
<line x1="23.5" y1="2.75757" x2="23.5" y2="48" stroke="#0076BE"/>
<line x1="34.5" y1="3" x2="34.5" y2="48.2424" stroke="#0076BE"/>
<line x1="45.5" y1="2.75757" x2="45.5" y2="48" stroke="#0076BE"/>
<line x1="56.5" y1="2.75757" x2="56.5" y2="48" stroke="#0076BE"/>
<line x1="67.5312" y1="2.75757" x2="67.5312" y2="48" stroke="#0076BE"/>
<line x1="78.5" y1="2.75757" x2="78.5" y2="48" stroke="#0076BE"/>
<line x1="89.5" y1="2.75757" x2="89.5" y2="48" stroke="#0076BE"/>
<line x1="100.5" y1="2.75757" x2="100.5" y2="48" stroke="#0076BE"/>
<line x1="111.5" y1="2.75757" x2="111.5" y2="48" stroke="#0076BE"/>
<line x1="122.5" y1="2.75757" x2="122.5" y2="48" stroke="#0076BE"/>
<line x1="133.5" y1="2.75757" x2="133.5" y2="48" stroke="#0076BE"/>
<line x1="144.5" y1="2.75757" x2="144.5" y2="48" stroke="#0076BE"/>
<line x1="155.5" y1="2.75757" x2="155.5" y2="48" stroke="#0076BE"/>
<line x1="166.455" y1="2.75757" x2="166.455" y2="48" stroke="#0076BE"/>
<line x1="177.5" y1="2.75757" x2="177.5" y2="48" stroke="#0076BE"/>
<line x1="188.5" y1="3" x2="188.5" y2="48.2424" stroke="#0076BE"/>
<line x1="199.085" y1="3" x2="199.085" y2="48.2424" stroke="#0076BE"/>
<line x1="210.5" y1="3" x2="210.5" y2="48.2424" stroke="#0076BE"/>
<line x1="221.5" y1="3" x2="221.5" y2="48.2424" stroke="#0076BE"/>
<line x1="232.5" y1="3" x2="232.5" y2="48.2424" stroke="#0076BE"/>
<line x1="243.5" y1="3" x2="243.5" y2="48.2424" stroke="#0076BE"/>
<line x1="254.5" y1="3" x2="254.5" y2="48.2424" stroke="#0076BE"/>
<line x1="265.346" y1="3" x2="265.346" y2="48.2424" stroke="#0076BE"/>
<line x1="276.5" y1="3" x2="276.5" y2="48.2424" stroke="#0076BE"/>
<line x1="287.5" y1="3" x2="287.5" y2="48.2424" stroke="#0076BE"/>
<line x1="298.977" y1="3" x2="298.977" y2="48.2424" stroke="#0076BE"/>
<line x1="309.499" y1="3" x2="309.499" y2="48.2424" stroke="#0076BE"/>
<line x1="320.5" y1="3" x2="320.5" y2="48.2424" stroke="#0076BE"/>
<line x1="331.539" y1="3" x2="331.539" y2="48.2424" stroke="#0076BE"/>
<line x1="342.5" y1="3" x2="342.5" y2="48.2424" stroke="#0076BE"/>
<line x1="353.5" y1="3" x2="353.5" y2="48.2424" stroke="#0076BE"/>
<line x1="364.169" y1="3" x2="364.169" y2="48.2424" stroke="#0076BE"/>
<line x1="375.5" y1="3" x2="375.5" y2="48.2424" stroke="#0076BE"/>
<line x1="386.59" y1="3" x2="386.59" y2="48.2424" stroke="#0076BE"/>
<line x1="397.8" y1="3" x2="397.8" y2="48.2424" stroke="#0076BE"/>
<line x1="408.5" y1="3" x2="408.5" y2="48.2424" stroke="#0076BE"/>
<line x1="419.5" y1="3" x2="419.5" y2="48.2424" stroke="#0076BE"/>
<line x1="430.431" y1="3" x2="430.431" y2="48.2424" stroke="#0076BE"/>
<line x1="441.5" y1="3" x2="441.5" y2="48.2424" stroke="#0076BE"/>
<line x1="452.5" y1="3" x2="452.5" y2="48.2424" stroke="#0076BE"/>
<line x1="463.061" y1="3" x2="463.061" y2="48.2424" stroke="#0076BE"/>
<line x1="474.5" y1="3.24243" x2="474.5" y2="48.4848" stroke="#0076BE"/>
<line x1="485.711" y1="3.24243" x2="485.711" y2="48.4848" stroke="#0076BE"/>
<line x1="496.92" y1="3.24243" x2="496.92" y2="48.4848" stroke="#0076BE"/>
<line x1="507.5" y1="3.24243" x2="507.5" y2="48.4848" stroke="#0076BE"/>
<line x1="518.5" y1="3" x2="518.5" y2="48.2424" stroke="#0076BE"/>
<line x1="529.551" y1="3" x2="529.551" y2="48.2424" stroke="#0076BE"/>
<line x1="540.5" y1="3" x2="540.5" y2="48.2424" stroke="#0076BE"/>
<line x1="551.5" y1="3" x2="551.5" y2="48.2424" stroke="#0076BE"/>
<line x1="562.182" y1="3" x2="562.182" y2="48.2424" stroke="#0076BE"/>
<line x1="573.392" y1="3" x2="573.392" y2="48.2424" stroke="#0076BE"/>
<line x1="584.5" y1="3" x2="584.5" y2="48.2424" stroke="#0076BE"/>
<line x1="595.5" y1="3" x2="595.5" y2="48.2424" stroke="#0076BE"/>
<line x1="606.188" y1="3" x2="606.188" y2="48.2424" stroke="#0076BE"/>
<line x1="617.5" y1="3" x2="617.5" y2="48.2424" stroke="#0076BE"/>
<line x1="628.5" y1="3" x2="628.5" y2="48.2424" stroke="#0076BE"/>
<line x1="639.711" y1="3" x2="639.711" y2="48.2424" stroke="#0076BE"/>
<line x1="650.92" y1="3" x2="650.92" y2="48.2424" stroke="#0076BE"/>
<line x1="662.131" y1="3" x2="662.131" y2="48.2424" stroke="#0076BE"/>
<line x1="673.5" y1="3" x2="673.5" y2="48.2424" stroke="#0076BE"/>
<line x1="0.802734" y1="3.17676" x2="677" y2="3.17676" stroke="#0076BE"/>
<line x1="1.04492" y1="14.5" x2="677" y2="14.5" stroke="#0076BE"/>
<line x1="0.802734" y1="25.2373" x2="676.758" y2="25.2373" stroke="#0076BE"/>
<line x1="0.802734" y1="36.5" x2="676.758" y2="36.5" stroke="#0076BE"/>
<line x1="0.802734" y1="47.298" x2="677" y2="47.298" stroke="#0076BE"/>
<defs>
<filter id="filter0_b_355_149" x="-2.95508" y="-4" width="683.955" height="56" filterUnits="userSpaceOnUse" color-interpolation-filters="sRGB">
<feFlood flood-opacity="0" result="BackgroundImageFix"/>
<feGaussianBlur in="BackgroundImageFix" stdDeviation="2"/>
<feComposite in2="SourceAlpha" operator="in" result="effect1_backgroundBlur_355_149"/>
<feBlend mode="normal" in="SourceGraphic" in2="effect1_backgroundBlur_355_149" result="shape"/>
</filter>
<linearGradient id="paint0_linear_355_149" x1="1014.98" y1="48" x2="1014.98" y2="96" gradientUnits="userSpaceOnUse">
<stop stop-color="#0076BE" stop-opacity="0.22"/>
<stop offset="1" stop-color="#2B2A2B" stop-opacity="0"/>
</linearGradient>
</defs>
</svg>
