<svg width="716" height="170" viewBox="0 0 716 170" fill="none" xmlns="http://www.w3.org/2000/svg">
<line x1="0.25" y1="1" x2="0.249993" y2="170" stroke="#0076BE" stroke-width="0.5"/>
<line x1="13.25" y1="1" x2="13.25" y2="170" stroke="#0076BE" stroke-width="0.5"/>
<line x1="26.25" y1="1" x2="26.25" y2="170" stroke="#0076BE" stroke-width="0.5"/>
<line x1="39.25" y1="1" x2="39.25" y2="170" stroke="#0076BE" stroke-width="0.5"/>
<line x1="52.25" y1="1" x2="52.25" y2="170" stroke="#0076BE" stroke-width="0.5"/>
<line x1="65.25" y1="1" x2="65.25" y2="170" stroke="#0076BE" stroke-width="0.5"/>
<line x1="78.25" y1="1" x2="78.25" y2="170" stroke="#0076BE" stroke-width="0.5"/>
<line x1="91.25" y1="1" x2="91.25" y2="170" stroke="#0076BE" stroke-width="0.5"/>
<line x1="104.25" y1="1" x2="104.25" y2="170" stroke="#0076BE" stroke-width="0.5"/>
<line x1="117.25" y1="1" x2="117.25" y2="170" stroke="#0076BE" stroke-width="0.5"/>
<line x1="130.25" y1="1" x2="130.25" y2="170" stroke="#0076BE" stroke-width="0.5"/>
<line x1="143.25" y1="1" x2="143.25" y2="170" stroke="#0076BE" stroke-width="0.5"/>
<line x1="156.25" y1="1" x2="156.25" y2="170" stroke="#0076BE" stroke-width="0.5"/>
<line x1="169.25" y1="1" x2="169.25" y2="170" stroke="#0076BE" stroke-width="0.5"/>
<line x1="182.25" y1="1" x2="182.25" y2="170" stroke="#0076BE" stroke-width="0.5"/>
<line x1="182.25" y1="1" x2="182.25" y2="170" stroke="#0076BE" stroke-width="0.5"/>
<line x1="195.25" y1="1" x2="195.25" y2="170" stroke="#0076BE" stroke-width="0.5"/>
<line x1="208.25" y1="1" x2="208.25" y2="170" stroke="#0076BE" stroke-width="0.5"/>
<line x1="221.25" y1="1" x2="221.25" y2="170" stroke="#0076BE" stroke-width="0.5"/>
<line x1="234.25" y1="1" x2="234.25" y2="170" stroke="#0076BE" stroke-width="0.5"/>
<line x1="247.25" y1="1" x2="247.25" y2="170" stroke="#0076BE" stroke-width="0.5"/>
<line x1="260.25" y1="1" x2="260.25" y2="170" stroke="#0076BE" stroke-width="0.5"/>
<line x1="273.25" y1="1" x2="273.25" y2="170" stroke="#0076BE" stroke-width="0.5"/>
<line x1="286.25" y1="1" x2="286.25" y2="170" stroke="#0076BE" stroke-width="0.5"/>
<line x1="299.25" y1="1" x2="299.25" y2="170" stroke="#0076BE" stroke-width="0.5"/>
<line x1="312.25" y1="1" x2="312.25" y2="170" stroke="#0076BE" stroke-width="0.5"/>
<line x1="325.25" y1="1" x2="325.25" y2="170" stroke="#0076BE" stroke-width="0.5"/>
<line x1="338.25" y1="1" x2="338.25" y2="170" stroke="#0076BE" stroke-width="0.5"/>
<line x1="351.25" y1="1" x2="351.25" y2="170" stroke="#0076BE" stroke-width="0.5"/>
<line x1="364.25" y1="1" x2="364.25" y2="170" stroke="#0076BE" stroke-width="0.5"/>
<line x1="364.25" y1="1" x2="364.25" y2="170" stroke="#0076BE" stroke-width="0.5"/>
<line x1="377.25" y1="1" x2="377.25" y2="170" stroke="#0076BE" stroke-width="0.5"/>
<line x1="390.25" y1="1" x2="390.25" y2="170" stroke="#0076BE" stroke-width="0.5"/>
<line x1="403.25" y1="1" x2="403.25" y2="170" stroke="#0076BE" stroke-width="0.5"/>
<line x1="416.25" y1="1" x2="416.25" y2="170" stroke="#0076BE" stroke-width="0.5"/>
<line x1="429.25" y1="1" x2="429.25" y2="170" stroke="#0076BE" stroke-width="0.5"/>
<line x1="442.25" y1="1" x2="442.25" y2="170" stroke="#0076BE" stroke-width="0.5"/>
<line x1="455.25" y1="1" x2="455.25" y2="170" stroke="#0076BE" stroke-width="0.5"/>
<line x1="468.25" y1="1" x2="468.25" y2="170" stroke="#0076BE" stroke-width="0.5"/>
<line x1="481.25" y1="1" x2="481.25" y2="170" stroke="#0076BE" stroke-width="0.5"/>
<line x1="494.25" y1="1" x2="494.25" y2="170" stroke="#0076BE" stroke-width="0.5"/>
<line x1="507.25" y1="1" x2="507.25" y2="170" stroke="#0076BE" stroke-width="0.5"/>
<line x1="520.25" y1="1" x2="520.25" y2="170" stroke="#0076BE" stroke-width="0.5"/>
<line x1="533.25" y1="1" x2="533.25" y2="170" stroke="#0076BE" stroke-width="0.5"/>
<line x1="546.25" y1="1" x2="546.25" y2="170" stroke="#0076BE" stroke-width="0.5"/>
<line x1="546.25" y1="1" x2="546.25" y2="170" stroke="#0076BE" stroke-width="0.5"/>
<line x1="559.25" y1="1" x2="559.25" y2="170" stroke="#0076BE" stroke-width="0.5"/>
<line x1="572.25" y1="1" x2="572.25" y2="170" stroke="#0076BE" stroke-width="0.5"/>
<line x1="585.25" y1="1" x2="585.25" y2="170" stroke="#0076BE" stroke-width="0.5"/>
<line x1="598.25" y1="1" x2="598.25" y2="170" stroke="#0076BE" stroke-width="0.5"/>
<line x1="611.25" y1="1" x2="611.25" y2="170" stroke="#0076BE" stroke-width="0.5"/>
<line x1="624.25" y1="1" x2="624.25" y2="170" stroke="#0076BE" stroke-width="0.5"/>
<line x1="637.25" y1="1" x2="637.25" y2="170" stroke="#0076BE" stroke-width="0.5"/>
<line x1="650.25" y1="1" x2="650.25" y2="170" stroke="#0076BE" stroke-width="0.5"/>
<line x1="663.25" y1="1" x2="663.25" y2="170" stroke="#0076BE" stroke-width="0.5"/>
<line x1="676.25" y1="1" x2="676.25" y2="170" stroke="#0076BE" stroke-width="0.5"/>
<line x1="689.25" y1="1" x2="689.25" y2="170" stroke="#0076BE" stroke-width="0.5"/>
<line x1="702.25" y1="1" x2="702.25" y2="170" stroke="#0076BE" stroke-width="0.5"/>
<line x1="715.25" y1="1" x2="715.25" y2="170" stroke="#0076BE" stroke-width="0.5"/>
<line y1="0.75" x2="715" y2="0.75" stroke="#0076BE" stroke-width="0.5"/>
<line y1="13.75" x2="715" y2="13.75" stroke="#0076BE" stroke-width="0.5"/>
<line y1="26.75" x2="715" y2="26.75" stroke="#0076BE" stroke-width="0.5"/>
<line y1="39.75" x2="715" y2="39.75" stroke="#0076BE" stroke-width="0.5"/>
<line y1="52.75" x2="715" y2="52.75" stroke="#0076BE" stroke-width="0.5"/>
<line y1="65.75" x2="715" y2="65.75" stroke="#0076BE" stroke-width="0.5"/>
<line y1="78.75" x2="715" y2="78.75" stroke="#0076BE" stroke-width="0.5"/>
<line y1="91.75" x2="715" y2="91.75" stroke="#0076BE" stroke-width="0.5"/>
<line y1="104.75" x2="715" y2="104.75" stroke="#0076BE" stroke-width="0.5"/>
<line y1="117.75" x2="715" y2="117.75" stroke="#0076BE" stroke-width="0.5"/>
<line y1="130.75" x2="715" y2="130.75" stroke="#0076BE" stroke-width="0.5"/>
<line y1="143.75" x2="715" y2="143.75" stroke="#0076BE" stroke-width="0.5"/>
<line y1="156.75" x2="715" y2="156.75" stroke="#0076BE" stroke-width="0.5"/>
<line y1="169.75" x2="715" y2="169.75" stroke="#0076BE" stroke-width="0.5"/>
</svg>
