<svg width="337" height="988" viewBox="0 0 337 988" fill="none" xmlns="http://www.w3.org/2000/svg">
<g clip-path="url(#clip0_458_2482)">
<line y1="-2" x2="81.6064" y2="-2" transform="matrix(0.727394 -0.68622 0.727394 0.68622 -12 52)" stroke="#D65B34" stroke-width="4"/>
</g>
<g clip-path="url(#clip1_458_2482)">
<line y1="-2" x2="81.6064" y2="-2" transform="matrix(0.727394 -0.68622 0.727394 0.68622 -12 82)" stroke="#D65B34" stroke-width="4"/>
<line y1="-2" x2="81.6064" y2="-2" transform="matrix(0.727394 -0.68622 0.727394 0.68622 -7 88)" stroke="#D65B34" stroke-width="4"/>
</g>
<g clip-path="url(#clip2_458_2482)">
<line y1="-2" x2="81.6064" y2="-2" transform="matrix(0.727394 -0.68622 0.727394 0.68622 -12 112)" stroke="#D65B34" stroke-width="4"/>
<line y1="-2" x2="81.6064" y2="-2" transform="matrix(0.727394 -0.68622 0.727394 0.68622 -7 118)" stroke="#D65B34" stroke-width="4"/>
<line y1="-2" x2="81.6064" y2="-2" transform="matrix(0.727394 -0.68622 0.727394 0.68622 -2 124)" stroke="#D65B34" stroke-width="4"/>
</g>
<g clip-path="url(#clip3_458_2482)">
<line y1="-2" x2="81.6064" y2="-2" transform="matrix(0.727394 -0.68622 0.727394 0.68622 -12 142)" stroke="#D65B34" stroke-width="4"/>
<line y1="-2" x2="81.6064" y2="-2" transform="matrix(0.727394 -0.68622 0.727394 0.68622 -7 148)" stroke="#D65B34" stroke-width="4"/>
<line y1="-2" x2="81.6064" y2="-2" transform="matrix(0.727394 -0.68622 0.727394 0.68622 -2 154)" stroke="#D65B34" stroke-width="4"/>
<line y1="-2" x2="81.6064" y2="-2" transform="matrix(0.727394 -0.68622 0.727394 0.68622 3 160)" stroke="#D65B34" stroke-width="4"/>
</g>
<g clip-path="url(#clip4_458_2482)">
<line y1="-2" x2="81.6064" y2="-2" transform="matrix(0.727394 -0.68622 0.727394 0.68622 -12 172)" stroke="#D65B34" stroke-width="4"/>
<line y1="-2" x2="81.6064" y2="-2" transform="matrix(0.727394 -0.68622 0.727394 0.68622 -7 178)" stroke="#D65B34" stroke-width="4"/>
<line y1="-2" x2="81.6064" y2="-2" transform="matrix(0.727394 -0.68622 0.727394 0.68622 -2 184)" stroke="#D65B34" stroke-width="4"/>
<line y1="-2" x2="81.6064" y2="-2" transform="matrix(0.727394 -0.68622 0.727394 0.68622 3 190)" stroke="#D65B34" stroke-width="4"/>
<line y1="-2" x2="81.6064" y2="-2" transform="matrix(0.727394 -0.68622 0.727394 0.68622 8 196)" stroke="#D65B34" stroke-width="4"/>
</g>
<g clip-path="url(#clip5_458_2482)">
<line y1="-2" x2="81.6064" y2="-2" transform="matrix(0.727394 -0.68622 0.727394 0.68622 -12 202)" stroke="#D65B34" stroke-width="4"/>
<line y1="-2" x2="81.6064" y2="-2" transform="matrix(0.727394 -0.68622 0.727394 0.68622 -7 208)" stroke="#D65B34" stroke-width="4"/>
<line y1="-2" x2="81.6064" y2="-2" transform="matrix(0.727394 -0.68622 0.727394 0.68622 -2 214)" stroke="#D65B34" stroke-width="4"/>
<line y1="-2" x2="81.6064" y2="-2" transform="matrix(0.727394 -0.68622 0.727394 0.68622 3 220)" stroke="#D65B34" stroke-width="4"/>
<line y1="-2" x2="81.6064" y2="-2" transform="matrix(0.727394 -0.68622 0.727394 0.68622 8 226)" stroke="#D65B34" stroke-width="4"/>
<line y1="-2" x2="81.6064" y2="-2" transform="matrix(0.727394 -0.68622 0.727394 0.68622 13 232)" stroke="#D65B34" stroke-width="4"/>
</g>
<g clip-path="url(#clip6_458_2482)">
<line y1="-2" x2="81.6064" y2="-2" transform="matrix(0.727394 -0.68622 0.727394 0.68622 -12 232)" stroke="#D65B34" stroke-width="4"/>
<line y1="-2" x2="81.6064" y2="-2" transform="matrix(0.727394 -0.68622 0.727394 0.68622 -7 238)" stroke="#D65B34" stroke-width="4"/>
<line y1="-2" x2="81.6064" y2="-2" transform="matrix(0.727394 -0.68622 0.727394 0.68622 -2 244)" stroke="#D65B34" stroke-width="4"/>
<line y1="-2" x2="81.6064" y2="-2" transform="matrix(0.727394 -0.68622 0.727394 0.68622 3 250)" stroke="#D65B34" stroke-width="4"/>
<line y1="-2" x2="81.6064" y2="-2" transform="matrix(0.727394 -0.68622 0.727394 0.68622 8 256)" stroke="#D65B34" stroke-width="4"/>
<line y1="-2" x2="81.6064" y2="-2" transform="matrix(0.727394 -0.68622 0.727394 0.68622 13 262)" stroke="#D65B34" stroke-width="4"/>
<line y1="-2" x2="477" y2="-2" transform="matrix(0.727394 -0.68622 0.727394 0.68622 18 268)" stroke="#D65B34" stroke-width="4"/>
</g>
<g clip-path="url(#clip7_458_2482)">
<line y1="-2" x2="81.6064" y2="-2" transform="matrix(0.727394 -0.68622 0.727394 0.68622 -12 262)" stroke="#D65B34" stroke-width="4"/>
<line y1="-2" x2="81.6064" y2="-2" transform="matrix(0.727394 -0.68622 0.727394 0.68622 -7 268)" stroke="#D65B34" stroke-width="4"/>
<line y1="-2" x2="81.6064" y2="-2" transform="matrix(0.727394 -0.68622 0.727394 0.68622 -2 274)" stroke="#D65B34" stroke-width="4"/>
<line y1="-2" x2="81.6064" y2="-2" transform="matrix(0.727394 -0.68622 0.727394 0.68622 3 280)" stroke="#D65B34" stroke-width="4"/>
<line y1="-2" x2="81.6064" y2="-2" transform="matrix(0.727394 -0.68622 0.727394 0.68622 8 286)" stroke="#D65B34" stroke-width="4"/>
<line y1="-2" x2="81.6064" y2="-2" transform="matrix(0.727394 -0.68622 0.727394 0.68622 13 292)" stroke="#D65B34" stroke-width="4"/>
<line y1="-2" x2="477" y2="-2" transform="matrix(0.727394 -0.68622 0.727394 0.68622 18 298)" stroke="#D65B34" stroke-width="4"/>
<line y1="-2" x2="477" y2="-2" transform="matrix(0.727394 -0.68622 0.727394 0.68622 23 304)" stroke="#D65B34" stroke-width="4"/>
</g>
<g clip-path="url(#clip8_458_2482)">
<line y1="-2" x2="81.6064" y2="-2" transform="matrix(0.727394 -0.68622 0.727394 0.68622 -12 292)" stroke="#D65B34" stroke-width="4"/>
<line y1="-2" x2="81.6064" y2="-2" transform="matrix(0.727394 -0.68622 0.727394 0.68622 -7 298)" stroke="#D65B34" stroke-width="4"/>
<line y1="-2" x2="81.6064" y2="-2" transform="matrix(0.727394 -0.68622 0.727394 0.68622 -2 304)" stroke="#D65B34" stroke-width="4"/>
<line y1="-2" x2="81.6064" y2="-2" transform="matrix(0.727394 -0.68622 0.727394 0.68622 3 310)" stroke="#D65B34" stroke-width="4"/>
<line y1="-2" x2="81.6064" y2="-2" transform="matrix(0.727394 -0.68622 0.727394 0.68622 8 316)" stroke="#D65B34" stroke-width="4"/>
<line y1="-2" x2="81.6064" y2="-2" transform="matrix(0.727394 -0.68622 0.727394 0.68622 13 322)" stroke="#D65B34" stroke-width="4"/>
<line y1="-2" x2="477" y2="-2" transform="matrix(0.727394 -0.68622 0.727394 0.68622 18 328)" stroke="#D65B34" stroke-width="4"/>
<line y1="-2" x2="477" y2="-2" transform="matrix(0.727394 -0.68622 0.727394 0.68622 23 334)" stroke="#D65B34" stroke-width="4"/>
<line y1="-2" x2="477" y2="-2" transform="matrix(0.727394 -0.68622 0.727394 0.68622 28 340)" stroke="#D65B34" stroke-width="4"/>
</g>
<g clip-path="url(#clip9_458_2482)">
<line y1="-2" x2="81.6064" y2="-2" transform="matrix(0.727394 -0.68622 0.727394 0.68622 -12 322)" stroke="#0076BE" stroke-width="4"/>
<line y1="-2" x2="81.6064" y2="-2" transform="matrix(0.727394 -0.68622 0.727394 0.68622 -7 328)" stroke="#0076BE" stroke-width="4"/>
<line y1="-2" x2="81.6064" y2="-2" transform="matrix(0.727394 -0.68622 0.727394 0.68622 -2 334)" stroke="#0076BE" stroke-width="4"/>
<line y1="-2" x2="81.6064" y2="-2" transform="matrix(0.727394 -0.68622 0.727394 0.68622 3 340)" stroke="#0076BE" stroke-width="4"/>
<line y1="-2" x2="81.6064" y2="-2" transform="matrix(0.727394 -0.68622 0.727394 0.68622 8 346)" stroke="#0076BE" stroke-width="4"/>
<line y1="-2" x2="81.6064" y2="-2" transform="matrix(0.727394 -0.68622 0.727394 0.68622 13 352)" stroke="#0076BE" stroke-width="4"/>
<line y1="-2" x2="477" y2="-2" transform="matrix(0.727394 -0.68622 0.727394 0.68622 18 358)" stroke="#0076BE" stroke-width="4"/>
<line y1="-2" x2="477" y2="-2" transform="matrix(0.727394 -0.68622 0.727394 0.68622 23 364)" stroke="#0076BE" stroke-width="4"/>
<line y1="-2" x2="477" y2="-2" transform="matrix(0.727394 -0.68622 0.727394 0.68622 28 370)" stroke="#0076BE" stroke-width="4"/>
<line y1="-2" x2="477" y2="-2" transform="matrix(0.727394 -0.68622 0.727394 0.68622 33 376)" stroke="#0076BE" stroke-width="4"/>
</g>
<g clip-path="url(#clip10_458_2482)">
<line y1="-2" x2="81.6064" y2="-2" transform="matrix(0.727394 -0.68622 0.727394 0.68622 -12 352)" stroke="#0076BE" stroke-width="4"/>
<line y1="-2" x2="81.6064" y2="-2" transform="matrix(0.727394 -0.68622 0.727394 0.68622 -7 358)" stroke="#0076BE" stroke-width="4"/>
<line y1="-2" x2="81.6064" y2="-2" transform="matrix(0.727394 -0.68622 0.727394 0.68622 -2 364)" stroke="#0076BE" stroke-width="4"/>
<line y1="-2" x2="81.6064" y2="-2" transform="matrix(0.727394 -0.68622 0.727394 0.68622 3 370)" stroke="#0076BE" stroke-width="4"/>
<line y1="-2" x2="81.6064" y2="-2" transform="matrix(0.727394 -0.68622 0.727394 0.68622 8 376)" stroke="#0076BE" stroke-width="4"/>
<line y1="-2" x2="81.6064" y2="-2" transform="matrix(0.727394 -0.68622 0.727394 0.68622 13 382)" stroke="#0076BE" stroke-width="4"/>
<line y1="-2" x2="477" y2="-2" transform="matrix(0.727394 -0.68622 0.727394 0.68622 18 388)" stroke="#0076BE" stroke-width="4"/>
<line y1="-2" x2="477" y2="-2" transform="matrix(0.727394 -0.68622 0.727394 0.68622 23 394)" stroke="#0076BE" stroke-width="4"/>
<line y1="-2" x2="477" y2="-2" transform="matrix(0.727394 -0.68622 0.727394 0.68622 28 400)" stroke="#0076BE" stroke-width="4"/>
<line y1="-2" x2="477" y2="-2" transform="matrix(0.727394 -0.68622 0.727394 0.68622 33 406)" stroke="#0076BE" stroke-width="4"/>
<line y1="-2" x2="477" y2="-2" transform="matrix(0.727394 -0.68622 0.727394 0.68622 38 412)" stroke="#0076BE" stroke-width="4"/>
</g>
<g clip-path="url(#clip11_458_2482)">
<line y1="-2" x2="81.6064" y2="-2" transform="matrix(0.727394 -0.68622 0.727394 0.68622 -12 382)" stroke="#0076BE" stroke-width="4"/>
<line y1="-2" x2="81.6064" y2="-2" transform="matrix(0.727394 -0.68622 0.727394 0.68622 -7 388)" stroke="#0076BE" stroke-width="4"/>
<line y1="-2" x2="81.6064" y2="-2" transform="matrix(0.727394 -0.68622 0.727394 0.68622 -2 394)" stroke="#0076BE" stroke-width="4"/>
<line y1="-2" x2="81.6064" y2="-2" transform="matrix(0.727394 -0.68622 0.727394 0.68622 3 400)" stroke="#0076BE" stroke-width="4"/>
<line y1="-2" x2="81.6064" y2="-2" transform="matrix(0.727394 -0.68622 0.727394 0.68622 8 406)" stroke="#0076BE" stroke-width="4"/>
<line y1="-2" x2="81.6064" y2="-2" transform="matrix(0.727394 -0.68622 0.727394 0.68622 13 412)" stroke="#0076BE" stroke-width="4"/>
<line y1="-2" x2="477" y2="-2" transform="matrix(0.727394 -0.68622 0.727394 0.68622 18 418)" stroke="#0076BE" stroke-width="4"/>
<line y1="-2" x2="477" y2="-2" transform="matrix(0.727394 -0.68622 0.727394 0.68622 23 424)" stroke="#0076BE" stroke-width="4"/>
<line y1="-2" x2="477" y2="-2" transform="matrix(0.727394 -0.68622 0.727394 0.68622 28 430)" stroke="#0076BE" stroke-width="4"/>
<line y1="-2" x2="477" y2="-2" transform="matrix(0.727394 -0.68622 0.727394 0.68622 33 436)" stroke="#0076BE" stroke-width="4"/>
<line y1="-2" x2="477" y2="-2" transform="matrix(0.727394 -0.68622 0.727394 0.68622 38 442)" stroke="#0076BE" stroke-width="4"/>
<line y1="-2" x2="477" y2="-2" transform="matrix(0.727394 -0.68622 0.727394 0.68622 43 448)" stroke="#0076BE" stroke-width="4"/>
</g>
<g clip-path="url(#clip12_458_2482)">
<line y1="-2" x2="81.6064" y2="-2" transform="matrix(0.727394 -0.68622 0.727394 0.68622 -12 412)" stroke="#0076BE" stroke-width="4"/>
<line y1="-2" x2="81.6064" y2="-2" transform="matrix(0.727394 -0.68622 0.727394 0.68622 -7 418)" stroke="#0076BE" stroke-width="4"/>
<line y1="-2" x2="81.6064" y2="-2" transform="matrix(0.727394 -0.68622 0.727394 0.68622 -2 424)" stroke="#0076BE" stroke-width="4"/>
<line y1="-2" x2="81.6064" y2="-2" transform="matrix(0.727394 -0.68622 0.727394 0.68622 3 430)" stroke="#0076BE" stroke-width="4"/>
<line y1="-2" x2="81.6064" y2="-2" transform="matrix(0.727394 -0.68622 0.727394 0.68622 8 436)" stroke="#0076BE" stroke-width="4"/>
<line y1="-2" x2="81.6064" y2="-2" transform="matrix(0.727394 -0.68622 0.727394 0.68622 13 442)" stroke="#0076BE" stroke-width="4"/>
<line y1="-2" x2="477" y2="-2" transform="matrix(0.727394 -0.68622 0.727394 0.68622 18 448)" stroke="#0076BE" stroke-width="4"/>
<line y1="-2" x2="477" y2="-2" transform="matrix(0.727394 -0.68622 0.727394 0.68622 23 454)" stroke="#0076BE" stroke-width="4"/>
<line y1="-2" x2="477" y2="-2" transform="matrix(0.727394 -0.68622 0.727394 0.68622 28 460)" stroke="#0076BE" stroke-width="4"/>
<line y1="-2" x2="477" y2="-2" transform="matrix(0.727394 -0.68622 0.727394 0.68622 33 466)" stroke="#0076BE" stroke-width="4"/>
<line y1="-2" x2="477" y2="-2" transform="matrix(0.727394 -0.68622 0.727394 0.68622 38 472)" stroke="#0076BE" stroke-width="4"/>
<line y1="-2" x2="477" y2="-2" transform="matrix(0.727394 -0.68622 0.727394 0.68622 43 478)" stroke="#0076BE" stroke-width="4"/>
<line y1="-2" x2="477" y2="-2" transform="matrix(0.727394 -0.68622 0.727394 0.68622 48 484)" stroke="#0076BE" stroke-width="4"/>
</g>
<g clip-path="url(#clip13_458_2482)">
<line y1="-2" x2="81.6064" y2="-2" transform="matrix(0.727394 -0.68622 0.727394 0.68622 -12 442)" stroke="#0076BE" stroke-width="4"/>
<line y1="-2" x2="81.6064" y2="-2" transform="matrix(0.727394 -0.68622 0.727394 0.68622 -7 448)" stroke="#0076BE" stroke-width="4"/>
<line y1="-2" x2="81.6064" y2="-2" transform="matrix(0.727394 -0.68622 0.727394 0.68622 -2 454)" stroke="#0076BE" stroke-width="4"/>
<line y1="-2" x2="81.6064" y2="-2" transform="matrix(0.727394 -0.68622 0.727394 0.68622 3 460)" stroke="#0076BE" stroke-width="4"/>
<line y1="-2" x2="81.6064" y2="-2" transform="matrix(0.727394 -0.68622 0.727394 0.68622 8 466)" stroke="#0076BE" stroke-width="4"/>
<line y1="-2" x2="81.6064" y2="-2" transform="matrix(0.727394 -0.68622 0.727394 0.68622 13 472)" stroke="#0076BE" stroke-width="4"/>
<line y1="-2" x2="477" y2="-2" transform="matrix(0.727394 -0.68622 0.727394 0.68622 18 478)" stroke="#0076BE" stroke-width="4"/>
<line y1="-2" x2="477" y2="-2" transform="matrix(0.727394 -0.68622 0.727394 0.68622 23 484)" stroke="#0076BE" stroke-width="4"/>
<line y1="-2" x2="477" y2="-2" transform="matrix(0.727394 -0.68622 0.727394 0.68622 28 490)" stroke="#0076BE" stroke-width="4"/>
<line y1="-2" x2="477" y2="-2" transform="matrix(0.727394 -0.68622 0.727394 0.68622 33 496)" stroke="#0076BE" stroke-width="4"/>
<line y1="-2" x2="477" y2="-2" transform="matrix(0.727394 -0.68622 0.727394 0.68622 38 502)" stroke="#0076BE" stroke-width="4"/>
<line y1="-2" x2="477" y2="-2" transform="matrix(0.727394 -0.68622 0.727394 0.68622 43 508)" stroke="#0076BE" stroke-width="4"/>
<line y1="-2" x2="477" y2="-2" transform="matrix(0.727394 -0.68622 0.727394 0.68622 48 514)" stroke="#0076BE" stroke-width="4"/>
<line y1="-2" x2="477" y2="-2" transform="matrix(0.727394 -0.68622 0.727394 0.68622 53 520)" stroke="#0076BE" stroke-width="4"/>
</g>
<g clip-path="url(#clip14_458_2482)">
<line y1="-2" x2="81.6064" y2="-2" transform="matrix(0.727394 -0.68622 0.727394 0.68622 -12 472)" stroke="#0076BE" stroke-width="4"/>
<line y1="-2" x2="81.6064" y2="-2" transform="matrix(0.727394 -0.68622 0.727394 0.68622 -7 478)" stroke="#0076BE" stroke-width="4"/>
<line y1="-2" x2="81.6064" y2="-2" transform="matrix(0.727394 -0.68622 0.727394 0.68622 -2 484)" stroke="#0076BE" stroke-width="4"/>
<line y1="-2" x2="81.6064" y2="-2" transform="matrix(0.727394 -0.68622 0.727394 0.68622 3 490)" stroke="#0076BE" stroke-width="4"/>
<line y1="-2" x2="81.6064" y2="-2" transform="matrix(0.727394 -0.68622 0.727394 0.68622 8 496)" stroke="#0076BE" stroke-width="4"/>
<line y1="-2" x2="81.6064" y2="-2" transform="matrix(0.727394 -0.68622 0.727394 0.68622 13 502)" stroke="#0076BE" stroke-width="4"/>
<line y1="-2" x2="477" y2="-2" transform="matrix(0.727394 -0.68622 0.727394 0.68622 18 508)" stroke="#0076BE" stroke-width="4"/>
<line y1="-2" x2="477" y2="-2" transform="matrix(0.727394 -0.68622 0.727394 0.68622 23 514)" stroke="#0076BE" stroke-width="4"/>
<line y1="-2" x2="477" y2="-2" transform="matrix(0.727394 -0.68622 0.727394 0.68622 28 520)" stroke="#0076BE" stroke-width="4"/>
<line y1="-2" x2="477" y2="-2" transform="matrix(0.727394 -0.68622 0.727394 0.68622 33 526)" stroke="#0076BE" stroke-width="4"/>
<line y1="-2" x2="477" y2="-2" transform="matrix(0.727394 -0.68622 0.727394 0.68622 38 532)" stroke="#0076BE" stroke-width="4"/>
<line y1="-2" x2="477" y2="-2" transform="matrix(0.727394 -0.68622 0.727394 0.68622 43 538)" stroke="#0076BE" stroke-width="4"/>
<line y1="-2" x2="477" y2="-2" transform="matrix(0.727394 -0.68622 0.727394 0.68622 48 544)" stroke="#0076BE" stroke-width="4"/>
<line y1="-2" x2="477" y2="-2" transform="matrix(0.727394 -0.68622 0.727394 0.68622 53 550)" stroke="#0076BE" stroke-width="4"/>
<line y1="-2" x2="477" y2="-2" transform="matrix(0.727394 -0.68622 0.727394 0.68622 58 556)" stroke="#0076BE" stroke-width="4"/>
</g>
<g clip-path="url(#clip15_458_2482)">
<line y1="-2" x2="81.6064" y2="-2" transform="matrix(0.727394 -0.68622 0.727394 0.68622 -12 502)" stroke="#0076BE" stroke-width="4"/>
<line y1="-2" x2="81.6064" y2="-2" transform="matrix(0.727394 -0.68622 0.727394 0.68622 -7 508)" stroke="#0076BE" stroke-width="4"/>
<line y1="-2" x2="81.6064" y2="-2" transform="matrix(0.727394 -0.68622 0.727394 0.68622 -2 514)" stroke="#0076BE" stroke-width="4"/>
<line y1="-2" x2="81.6064" y2="-2" transform="matrix(0.727394 -0.68622 0.727394 0.68622 3 520)" stroke="#0076BE" stroke-width="4"/>
<line y1="-2" x2="81.6064" y2="-2" transform="matrix(0.727394 -0.68622 0.727394 0.68622 8 526)" stroke="#0076BE" stroke-width="4"/>
<line y1="-2" x2="81.6064" y2="-2" transform="matrix(0.727394 -0.68622 0.727394 0.68622 13 532)" stroke="#0076BE" stroke-width="4"/>
<line y1="-2" x2="477" y2="-2" transform="matrix(0.727394 -0.68622 0.727394 0.68622 18 538)" stroke="#0076BE" stroke-width="4"/>
<line y1="-2" x2="477" y2="-2" transform="matrix(0.727394 -0.68622 0.727394 0.68622 23 544)" stroke="#0076BE" stroke-width="4"/>
<line y1="-2" x2="477" y2="-2" transform="matrix(0.727394 -0.68622 0.727394 0.68622 28 550)" stroke="#0076BE" stroke-width="4"/>
<line y1="-2" x2="477" y2="-2" transform="matrix(0.727394 -0.68622 0.727394 0.68622 33 556)" stroke="#0076BE" stroke-width="4"/>
<line y1="-2" x2="477" y2="-2" transform="matrix(0.727394 -0.68622 0.727394 0.68622 38 562)" stroke="#0076BE" stroke-width="4"/>
<line y1="-2" x2="477" y2="-2" transform="matrix(0.727394 -0.68622 0.727394 0.68622 43 568)" stroke="#0076BE" stroke-width="4"/>
<line y1="-2" x2="477" y2="-2" transform="matrix(0.727394 -0.68622 0.727394 0.68622 48 574)" stroke="#0076BE" stroke-width="4"/>
<line y1="-2" x2="477" y2="-2" transform="matrix(0.727394 -0.68622 0.727394 0.68622 53 580)" stroke="#0076BE" stroke-width="4"/>
<line y1="-2" x2="477" y2="-2" transform="matrix(0.727394 -0.68622 0.727394 0.68622 58 586)" stroke="#0076BE" stroke-width="4"/>
<line y1="-2" x2="477" y2="-2" transform="matrix(0.727394 -0.68622 0.727394 0.68622 63 592)" stroke="#0076BE" stroke-width="4"/>
</g>
<g clip-path="url(#clip16_458_2482)">
<line y1="-2" x2="81.6064" y2="-2" transform="matrix(0.727394 -0.68622 0.727394 0.68622 -12 532)" stroke="#0076BE" stroke-width="4"/>
<line y1="-2" x2="81.6064" y2="-2" transform="matrix(0.727394 -0.68622 0.727394 0.68622 -7 538)" stroke="#0076BE" stroke-width="4"/>
<line y1="-2" x2="81.6064" y2="-2" transform="matrix(0.727394 -0.68622 0.727394 0.68622 -2 544)" stroke="#0076BE" stroke-width="4"/>
<line y1="-2" x2="81.6064" y2="-2" transform="matrix(0.727394 -0.68622 0.727394 0.68622 3 550)" stroke="#0076BE" stroke-width="4"/>
<line y1="-2" x2="81.6064" y2="-2" transform="matrix(0.727394 -0.68622 0.727394 0.68622 8 556)" stroke="#0076BE" stroke-width="4"/>
<line y1="-2" x2="81.6064" y2="-2" transform="matrix(0.727394 -0.68622 0.727394 0.68622 13 562)" stroke="#0076BE" stroke-width="4"/>
<line y1="-2" x2="477" y2="-2" transform="matrix(0.727394 -0.68622 0.727394 0.68622 18 568)" stroke="#0076BE" stroke-width="4"/>
<line y1="-2" x2="477" y2="-2" transform="matrix(0.727394 -0.68622 0.727394 0.68622 23 574)" stroke="#0076BE" stroke-width="4"/>
<line y1="-2" x2="477" y2="-2" transform="matrix(0.727394 -0.68622 0.727394 0.68622 28 580)" stroke="#0076BE" stroke-width="4"/>
<line y1="-2" x2="477" y2="-2" transform="matrix(0.727394 -0.68622 0.727394 0.68622 33 586)" stroke="#0076BE" stroke-width="4"/>
<line y1="-2" x2="477" y2="-2" transform="matrix(0.727394 -0.68622 0.727394 0.68622 38 592)" stroke="#0076BE" stroke-width="4"/>
<line y1="-2" x2="477" y2="-2" transform="matrix(0.727394 -0.68622 0.727394 0.68622 43 598)" stroke="#0076BE" stroke-width="4"/>
<line y1="-2" x2="477" y2="-2" transform="matrix(0.727394 -0.68622 0.727394 0.68622 48 604)" stroke="#0076BE" stroke-width="4"/>
<line y1="-2" x2="477" y2="-2" transform="matrix(0.727394 -0.68622 0.727394 0.68622 53 610)" stroke="#0076BE" stroke-width="4"/>
<line y1="-2" x2="477" y2="-2" transform="matrix(0.727394 -0.68622 0.727394 0.68622 58 616)" stroke="#0076BE" stroke-width="4"/>
<line y1="-2" x2="477" y2="-2" transform="matrix(0.727394 -0.68622 0.727394 0.68622 63 622)" stroke="#0076BE" stroke-width="4"/>
<line y1="-2" x2="477" y2="-2" transform="matrix(0.727394 -0.68622 0.727394 0.68622 68 628)" stroke="#0076BE" stroke-width="4"/>
</g>
<g clip-path="url(#clip17_458_2482)">
<line y1="-2" x2="81.6064" y2="-2" transform="matrix(0.727394 -0.68622 0.727394 0.68622 -12 562)" stroke="#0076BE" stroke-width="4"/>
<line y1="-2" x2="81.6064" y2="-2" transform="matrix(0.727394 -0.68622 0.727394 0.68622 -7 568)" stroke="#0076BE" stroke-width="4"/>
<line y1="-2" x2="81.6064" y2="-2" transform="matrix(0.727394 -0.68622 0.727394 0.68622 -2 574)" stroke="#0076BE" stroke-width="4"/>
<line y1="-2" x2="81.6064" y2="-2" transform="matrix(0.727394 -0.68622 0.727394 0.68622 3 580)" stroke="#0076BE" stroke-width="4"/>
<line y1="-2" x2="81.6064" y2="-2" transform="matrix(0.727394 -0.68622 0.727394 0.68622 8 586)" stroke="#0076BE" stroke-width="4"/>
<line y1="-2" x2="81.6064" y2="-2" transform="matrix(0.727394 -0.68622 0.727394 0.68622 13 592)" stroke="#0076BE" stroke-width="4"/>
<line y1="-2" x2="477" y2="-2" transform="matrix(0.727394 -0.68622 0.727394 0.68622 18 598)" stroke="#0076BE" stroke-width="4"/>
<line y1="-2" x2="477" y2="-2" transform="matrix(0.727394 -0.68622 0.727394 0.68622 23 604)" stroke="#0076BE" stroke-width="4"/>
<line y1="-2" x2="477" y2="-2" transform="matrix(0.727394 -0.68622 0.727394 0.68622 28 610)" stroke="#0076BE" stroke-width="4"/>
<line y1="-2" x2="477" y2="-2" transform="matrix(0.727394 -0.68622 0.727394 0.68622 33 616)" stroke="#0076BE" stroke-width="4"/>
<line y1="-2" x2="477" y2="-2" transform="matrix(0.727394 -0.68622 0.727394 0.68622 38 622)" stroke="#0076BE" stroke-width="4"/>
<line y1="-2" x2="477" y2="-2" transform="matrix(0.727394 -0.68622 0.727394 0.68622 43 628)" stroke="#0076BE" stroke-width="4"/>
<line y1="-2" x2="477" y2="-2" transform="matrix(0.727394 -0.68622 0.727394 0.68622 48 634)" stroke="#0076BE" stroke-width="4"/>
<line y1="-2" x2="477" y2="-2" transform="matrix(0.727394 -0.68622 0.727394 0.68622 53 640)" stroke="#0076BE" stroke-width="4"/>
<line y1="-2" x2="477" y2="-2" transform="matrix(0.727394 -0.68622 0.727394 0.68622 58 646)" stroke="#0076BE" stroke-width="4"/>
<line y1="-2" x2="477" y2="-2" transform="matrix(0.727394 -0.68622 0.727394 0.68622 63 652)" stroke="#0076BE" stroke-width="4"/>
<line y1="-2" x2="477" y2="-2" transform="matrix(0.727394 -0.68622 0.727394 0.68622 68 658)" stroke="#0076BE" stroke-width="4"/>
<line y1="-2" x2="477" y2="-2" transform="matrix(0.727394 -0.68622 0.727394 0.68622 73 664)" stroke="#0076BE" stroke-width="4"/>
</g>
<g clip-path="url(#clip18_458_2482)">
<line y1="-2" x2="81.6064" y2="-2" transform="matrix(0.727394 -0.68622 0.727394 0.68622 -12 592)" stroke="#0076BE" stroke-width="4"/>
<line y1="-2" x2="81.6064" y2="-2" transform="matrix(0.727394 -0.68622 0.727394 0.68622 -7 598)" stroke="#0076BE" stroke-width="4"/>
<line y1="-2" x2="81.6064" y2="-2" transform="matrix(0.727394 -0.68622 0.727394 0.68622 -2 604)" stroke="#0076BE" stroke-width="4"/>
<line y1="-2" x2="81.6064" y2="-2" transform="matrix(0.727394 -0.68622 0.727394 0.68622 3 610)" stroke="#0076BE" stroke-width="4"/>
<line y1="-2" x2="81.6064" y2="-2" transform="matrix(0.727394 -0.68622 0.727394 0.68622 8 616)" stroke="#0076BE" stroke-width="4"/>
<line y1="-2" x2="81.6064" y2="-2" transform="matrix(0.727394 -0.68622 0.727394 0.68622 13 622)" stroke="#0076BE" stroke-width="4"/>
<line y1="-2" x2="477" y2="-2" transform="matrix(0.727394 -0.68622 0.727394 0.68622 18 628)" stroke="#0076BE" stroke-width="4"/>
<line y1="-2" x2="477" y2="-2" transform="matrix(0.727394 -0.68622 0.727394 0.68622 23 634)" stroke="#0076BE" stroke-width="4"/>
<line y1="-2" x2="477" y2="-2" transform="matrix(0.727394 -0.68622 0.727394 0.68622 28 640)" stroke="#0076BE" stroke-width="4"/>
<line y1="-2" x2="477" y2="-2" transform="matrix(0.727394 -0.68622 0.727394 0.68622 33 646)" stroke="#0076BE" stroke-width="4"/>
<line y1="-2" x2="477" y2="-2" transform="matrix(0.727394 -0.68622 0.727394 0.68622 38 652)" stroke="#0076BE" stroke-width="4"/>
<line y1="-2" x2="477" y2="-2" transform="matrix(0.727394 -0.68622 0.727394 0.68622 43 658)" stroke="#0076BE" stroke-width="4"/>
<line y1="-2" x2="477" y2="-2" transform="matrix(0.727394 -0.68622 0.727394 0.68622 48 664)" stroke="#0076BE" stroke-width="4"/>
<line y1="-2" x2="477" y2="-2" transform="matrix(0.727394 -0.68622 0.727394 0.68622 53 670)" stroke="#0076BE" stroke-width="4"/>
<line y1="-2" x2="477" y2="-2" transform="matrix(0.727394 -0.68622 0.727394 0.68622 58 676)" stroke="#0076BE" stroke-width="4"/>
<line y1="-2" x2="477" y2="-2" transform="matrix(0.727394 -0.68622 0.727394 0.68622 63 682)" stroke="#0076BE" stroke-width="4"/>
<line y1="-2" x2="477" y2="-2" transform="matrix(0.727394 -0.68622 0.727394 0.68622 68 688)" stroke="#0076BE" stroke-width="4"/>
<line y1="-2" x2="477" y2="-2" transform="matrix(0.727394 -0.68622 0.727394 0.68622 73 694)" stroke="#0076BE" stroke-width="4"/>
<line y1="-2" x2="477" y2="-2" transform="matrix(0.727394 -0.68622 0.727394 0.68622 78 700)" stroke="#0076BE" stroke-width="4"/>
</g>
<g clip-path="url(#clip19_458_2482)">
<line y1="-2" x2="81.6064" y2="-2" transform="matrix(0.727394 -0.68622 0.727394 0.68622 -12 622)" stroke="#0076BE" stroke-width="4"/>
<line y1="-2" x2="81.6064" y2="-2" transform="matrix(0.727394 -0.68622 0.727394 0.68622 -7 628)" stroke="#0076BE" stroke-width="4"/>
<line y1="-2" x2="81.6064" y2="-2" transform="matrix(0.727394 -0.68622 0.727394 0.68622 -2 634)" stroke="#0076BE" stroke-width="4"/>
<line y1="-2" x2="81.6064" y2="-2" transform="matrix(0.727394 -0.68622 0.727394 0.68622 3 640)" stroke="#0076BE" stroke-width="4"/>
<line y1="-2" x2="81.6064" y2="-2" transform="matrix(0.727394 -0.68622 0.727394 0.68622 8 646)" stroke="#0076BE" stroke-width="4"/>
<line y1="-2" x2="81.6064" y2="-2" transform="matrix(0.727394 -0.68622 0.727394 0.68622 13 652)" stroke="#0076BE" stroke-width="4"/>
<line y1="-2" x2="477" y2="-2" transform="matrix(0.727394 -0.68622 0.727394 0.68622 18 658)" stroke="#0076BE" stroke-width="4"/>
<line y1="-2" x2="477" y2="-2" transform="matrix(0.727394 -0.68622 0.727394 0.68622 23 664)" stroke="#0076BE" stroke-width="4"/>
<line y1="-2" x2="477" y2="-2" transform="matrix(0.727394 -0.68622 0.727394 0.68622 28 670)" stroke="#0076BE" stroke-width="4"/>
<line y1="-2" x2="477" y2="-2" transform="matrix(0.727394 -0.68622 0.727394 0.68622 33 676)" stroke="#0076BE" stroke-width="4"/>
<line y1="-2" x2="477" y2="-2" transform="matrix(0.727394 -0.68622 0.727394 0.68622 38 682)" stroke="#0076BE" stroke-width="4"/>
<line y1="-2" x2="477" y2="-2" transform="matrix(0.727394 -0.68622 0.727394 0.68622 43 688)" stroke="#0076BE" stroke-width="4"/>
<line y1="-2" x2="477" y2="-2" transform="matrix(0.727394 -0.68622 0.727394 0.68622 48 694)" stroke="#0076BE" stroke-width="4"/>
<line y1="-2" x2="477" y2="-2" transform="matrix(0.727394 -0.68622 0.727394 0.68622 53 700)" stroke="#0076BE" stroke-width="4"/>
<line y1="-2" x2="477" y2="-2" transform="matrix(0.727394 -0.68622 0.727394 0.68622 58 706)" stroke="#0076BE" stroke-width="4"/>
<line y1="-2" x2="477" y2="-2" transform="matrix(0.727394 -0.68622 0.727394 0.68622 63 712)" stroke="#0076BE" stroke-width="4"/>
<line y1="-2" x2="477" y2="-2" transform="matrix(0.727394 -0.68622 0.727394 0.68622 68 718)" stroke="#0076BE" stroke-width="4"/>
<line y1="-2" x2="477" y2="-2" transform="matrix(0.727394 -0.68622 0.727394 0.68622 73 724)" stroke="#0076BE" stroke-width="4"/>
<line y1="-2" x2="477" y2="-2" transform="matrix(0.727394 -0.68622 0.727394 0.68622 78 730)" stroke="#0076BE" stroke-width="4"/>
<line y1="-2" x2="477" y2="-2" transform="matrix(0.727394 -0.68622 0.727394 0.68622 83 736)" stroke="#0076BE" stroke-width="4"/>
</g>
<g clip-path="url(#clip20_458_2482)">
<line y1="-2" x2="81.6064" y2="-2" transform="matrix(0.727394 -0.68622 0.727394 0.68622 -12 652)" stroke="#0076BE" stroke-width="4"/>
<line y1="-2" x2="81.6064" y2="-2" transform="matrix(0.727394 -0.68622 0.727394 0.68622 -7 658)" stroke="#0076BE" stroke-width="4"/>
<line y1="-2" x2="81.6064" y2="-2" transform="matrix(0.727394 -0.68622 0.727394 0.68622 -2 664)" stroke="#0076BE" stroke-width="4"/>
<line y1="-2" x2="81.6064" y2="-2" transform="matrix(0.727394 -0.68622 0.727394 0.68622 3 670)" stroke="#0076BE" stroke-width="4"/>
<line y1="-2" x2="81.6064" y2="-2" transform="matrix(0.727394 -0.68622 0.727394 0.68622 8 676)" stroke="#0076BE" stroke-width="4"/>
<line y1="-2" x2="81.6064" y2="-2" transform="matrix(0.727394 -0.68622 0.727394 0.68622 13 682)" stroke="#0076BE" stroke-width="4"/>
<line y1="-2" x2="477" y2="-2" transform="matrix(0.727394 -0.68622 0.727394 0.68622 18 688)" stroke="#0076BE" stroke-width="4"/>
<line y1="-2" x2="477" y2="-2" transform="matrix(0.727394 -0.68622 0.727394 0.68622 23 694)" stroke="#0076BE" stroke-width="4"/>
<line y1="-2" x2="477" y2="-2" transform="matrix(0.727394 -0.68622 0.727394 0.68622 28 700)" stroke="#0076BE" stroke-width="4"/>
<line y1="-2" x2="477" y2="-2" transform="matrix(0.727394 -0.68622 0.727394 0.68622 33 706)" stroke="#0076BE" stroke-width="4"/>
<line y1="-2" x2="477" y2="-2" transform="matrix(0.727394 -0.68622 0.727394 0.68622 38 712)" stroke="#0076BE" stroke-width="4"/>
<line y1="-2" x2="477" y2="-2" transform="matrix(0.727394 -0.68622 0.727394 0.68622 43 718)" stroke="#0076BE" stroke-width="4"/>
<line y1="-2" x2="477" y2="-2" transform="matrix(0.727394 -0.68622 0.727394 0.68622 48 724)" stroke="#0076BE" stroke-width="4"/>
<line y1="-2" x2="477" y2="-2" transform="matrix(0.727394 -0.68622 0.727394 0.68622 53 730)" stroke="#0076BE" stroke-width="4"/>
<line y1="-2" x2="477" y2="-2" transform="matrix(0.727394 -0.68622 0.727394 0.68622 58 736)" stroke="#0076BE" stroke-width="4"/>
<line y1="-2" x2="477" y2="-2" transform="matrix(0.727394 -0.68622 0.727394 0.68622 63 742)" stroke="#0076BE" stroke-width="4"/>
<line y1="-2" x2="477" y2="-2" transform="matrix(0.727394 -0.68622 0.727394 0.68622 68 748)" stroke="#0076BE" stroke-width="4"/>
<line y1="-2" x2="477" y2="-2" transform="matrix(0.727394 -0.68622 0.727394 0.68622 73 754)" stroke="#0076BE" stroke-width="4"/>
<line y1="-2" x2="477" y2="-2" transform="matrix(0.727394 -0.68622 0.727394 0.68622 78 760)" stroke="#0076BE" stroke-width="4"/>
<line y1="-2" x2="477" y2="-2" transform="matrix(0.727394 -0.68622 0.727394 0.68622 83 766)" stroke="#0076BE" stroke-width="4"/>
<line y1="-2" x2="477" y2="-2" transform="matrix(0.727394 -0.68622 0.727394 0.68622 88 772)" stroke="#0076BE" stroke-width="4"/>
</g>
<g clip-path="url(#clip21_458_2482)">
<line y1="-2" x2="81.6064" y2="-2" transform="matrix(0.727394 -0.68622 0.727394 0.68622 -12 682)" stroke="#0076BE" stroke-width="4"/>
<line y1="-2" x2="81.6064" y2="-2" transform="matrix(0.727394 -0.68622 0.727394 0.68622 -7 688)" stroke="#0076BE" stroke-width="4"/>
<line y1="-2" x2="81.6064" y2="-2" transform="matrix(0.727394 -0.68622 0.727394 0.68622 -2 694)" stroke="#0076BE" stroke-width="4"/>
<line y1="-2" x2="81.6064" y2="-2" transform="matrix(0.727394 -0.68622 0.727394 0.68622 3 700)" stroke="#0076BE" stroke-width="4"/>
<line y1="-2" x2="81.6064" y2="-2" transform="matrix(0.727394 -0.68622 0.727394 0.68622 8 706)" stroke="#0076BE" stroke-width="4"/>
<line y1="-2" x2="81.6064" y2="-2" transform="matrix(0.727394 -0.68622 0.727394 0.68622 13 712)" stroke="#0076BE" stroke-width="4"/>
<line y1="-2" x2="477" y2="-2" transform="matrix(0.727394 -0.68622 0.727394 0.68622 18 718)" stroke="#0076BE" stroke-width="4"/>
<line y1="-2" x2="477" y2="-2" transform="matrix(0.727394 -0.68622 0.727394 0.68622 23 724)" stroke="#0076BE" stroke-width="4"/>
<line y1="-2" x2="477" y2="-2" transform="matrix(0.727394 -0.68622 0.727394 0.68622 28 730)" stroke="#0076BE" stroke-width="4"/>
<line y1="-2" x2="477" y2="-2" transform="matrix(0.727394 -0.68622 0.727394 0.68622 33 736)" stroke="#0076BE" stroke-width="4"/>
<line y1="-2" x2="477" y2="-2" transform="matrix(0.727394 -0.68622 0.727394 0.68622 38 742)" stroke="#0076BE" stroke-width="4"/>
<line y1="-2" x2="477" y2="-2" transform="matrix(0.727394 -0.68622 0.727394 0.68622 43 748)" stroke="#0076BE" stroke-width="4"/>
<line y1="-2" x2="477" y2="-2" transform="matrix(0.727394 -0.68622 0.727394 0.68622 48 754)" stroke="#0076BE" stroke-width="4"/>
<line y1="-2" x2="477" y2="-2" transform="matrix(0.727394 -0.68622 0.727394 0.68622 53 760)" stroke="#0076BE" stroke-width="4"/>
<line y1="-2" x2="477" y2="-2" transform="matrix(0.727394 -0.68622 0.727394 0.68622 58 766)" stroke="#0076BE" stroke-width="4"/>
<line y1="-2" x2="477" y2="-2" transform="matrix(0.727394 -0.68622 0.727394 0.68622 63 772)" stroke="#0076BE" stroke-width="4"/>
<line y1="-2" x2="477" y2="-2" transform="matrix(0.727394 -0.68622 0.727394 0.68622 68 778)" stroke="#0076BE" stroke-width="4"/>
<line y1="-2" x2="477" y2="-2" transform="matrix(0.727394 -0.68622 0.727394 0.68622 73 784)" stroke="#0076BE" stroke-width="4"/>
<line y1="-2" x2="477" y2="-2" transform="matrix(0.727394 -0.68622 0.727394 0.68622 78 790)" stroke="#0076BE" stroke-width="4"/>
<line y1="-2" x2="477" y2="-2" transform="matrix(0.727394 -0.68622 0.727394 0.68622 83 796)" stroke="#0076BE" stroke-width="4"/>
<line y1="-2" x2="477" y2="-2" transform="matrix(0.727394 -0.68622 0.727394 0.68622 88 802)" stroke="#0076BE" stroke-width="4"/>
<line y1="-2" x2="477" y2="-2" transform="matrix(0.727394 -0.68622 0.727394 0.68622 93 808)" stroke="#0076BE" stroke-width="4"/>
</g>
<g clip-path="url(#clip22_458_2482)">
<line y1="-2" x2="81.6064" y2="-2" transform="matrix(0.727394 -0.68622 0.727394 0.68622 -12 712)" stroke="#0076BE" stroke-width="4"/>
<line y1="-2" x2="81.6064" y2="-2" transform="matrix(0.727394 -0.68622 0.727394 0.68622 -7 718)" stroke="#0076BE" stroke-width="4"/>
<line y1="-2" x2="81.6064" y2="-2" transform="matrix(0.727394 -0.68622 0.727394 0.68622 -2 724)" stroke="#0076BE" stroke-width="4"/>
<line y1="-2" x2="81.6064" y2="-2" transform="matrix(0.727394 -0.68622 0.727394 0.68622 3 730)" stroke="#0076BE" stroke-width="4"/>
<line y1="-2" x2="81.6064" y2="-2" transform="matrix(0.727394 -0.68622 0.727394 0.68622 8 736)" stroke="#0076BE" stroke-width="4"/>
<line y1="-2" x2="81.6064" y2="-2" transform="matrix(0.727394 -0.68622 0.727394 0.68622 13 742)" stroke="#0076BE" stroke-width="4"/>
<line y1="-2" x2="477" y2="-2" transform="matrix(0.727394 -0.68622 0.727394 0.68622 18 748)" stroke="#0076BE" stroke-width="4"/>
<line y1="-2" x2="477" y2="-2" transform="matrix(0.727394 -0.68622 0.727394 0.68622 23 754)" stroke="#0076BE" stroke-width="4"/>
<line y1="-2" x2="477" y2="-2" transform="matrix(0.727394 -0.68622 0.727394 0.68622 28 760)" stroke="#0076BE" stroke-width="4"/>
<line y1="-2" x2="477" y2="-2" transform="matrix(0.727394 -0.68622 0.727394 0.68622 33 766)" stroke="#0076BE" stroke-width="4"/>
<line y1="-2" x2="477" y2="-2" transform="matrix(0.727394 -0.68622 0.727394 0.68622 38 772)" stroke="#0076BE" stroke-width="4"/>
<line y1="-2" x2="477" y2="-2" transform="matrix(0.727394 -0.68622 0.727394 0.68622 43 778)" stroke="#0076BE" stroke-width="4"/>
<line y1="-2" x2="477" y2="-2" transform="matrix(0.727394 -0.68622 0.727394 0.68622 48 784)" stroke="#0076BE" stroke-width="4"/>
<line y1="-2" x2="477" y2="-2" transform="matrix(0.727394 -0.68622 0.727394 0.68622 53 790)" stroke="#0076BE" stroke-width="4"/>
<line y1="-2" x2="477" y2="-2" transform="matrix(0.727394 -0.68622 0.727394 0.68622 58 796)" stroke="#0076BE" stroke-width="4"/>
<line y1="-2" x2="477" y2="-2" transform="matrix(0.727394 -0.68622 0.727394 0.68622 63 802)" stroke="#0076BE" stroke-width="4"/>
<line y1="-2" x2="477" y2="-2" transform="matrix(0.727394 -0.68622 0.727394 0.68622 68 808)" stroke="#0076BE" stroke-width="4"/>
<line y1="-2" x2="477" y2="-2" transform="matrix(0.727394 -0.68622 0.727394 0.68622 73 814)" stroke="#0076BE" stroke-width="4"/>
<line y1="-2" x2="477" y2="-2" transform="matrix(0.727394 -0.68622 0.727394 0.68622 78 820)" stroke="#0076BE" stroke-width="4"/>
<line y1="-2" x2="477" y2="-2" transform="matrix(0.727394 -0.68622 0.727394 0.68622 83 826)" stroke="#0076BE" stroke-width="4"/>
<line y1="-2" x2="477" y2="-2" transform="matrix(0.727394 -0.68622 0.727394 0.68622 88 832)" stroke="#0076BE" stroke-width="4"/>
<line y1="-2" x2="477" y2="-2" transform="matrix(0.727394 -0.68622 0.727394 0.68622 93 838)" stroke="#0076BE" stroke-width="4"/>
<line y1="-2" x2="477" y2="-2" transform="matrix(0.727394 -0.68622 0.727394 0.68622 98 844)" stroke="#0076BE" stroke-width="4"/>
</g>
<g clip-path="url(#clip23_458_2482)">
<line y1="-2" x2="81.6064" y2="-2" transform="matrix(0.727394 -0.68622 0.727394 0.68622 -12 742)" stroke="#0076BE" stroke-width="4"/>
<line y1="-2" x2="81.6064" y2="-2" transform="matrix(0.727394 -0.68622 0.727394 0.68622 -7 748)" stroke="#0076BE" stroke-width="4"/>
<line y1="-2" x2="81.6064" y2="-2" transform="matrix(0.727394 -0.68622 0.727394 0.68622 -2 754)" stroke="#0076BE" stroke-width="4"/>
<line y1="-2" x2="81.6064" y2="-2" transform="matrix(0.727394 -0.68622 0.727394 0.68622 3 760)" stroke="#0076BE" stroke-width="4"/>
<line y1="-2" x2="81.6064" y2="-2" transform="matrix(0.727394 -0.68622 0.727394 0.68622 8 766)" stroke="#0076BE" stroke-width="4"/>
<line y1="-2" x2="81.6064" y2="-2" transform="matrix(0.727394 -0.68622 0.727394 0.68622 13 772)" stroke="#0076BE" stroke-width="4"/>
<line y1="-2" x2="477" y2="-2" transform="matrix(0.727394 -0.68622 0.727394 0.68622 18 778)" stroke="#0076BE" stroke-width="4"/>
<line y1="-2" x2="477" y2="-2" transform="matrix(0.727394 -0.68622 0.727394 0.68622 23 784)" stroke="#0076BE" stroke-width="4"/>
<line y1="-2" x2="477" y2="-2" transform="matrix(0.727394 -0.68622 0.727394 0.68622 28 790)" stroke="#0076BE" stroke-width="4"/>
<line y1="-2" x2="477" y2="-2" transform="matrix(0.727394 -0.68622 0.727394 0.68622 33 796)" stroke="#0076BE" stroke-width="4"/>
<line y1="-2" x2="477" y2="-2" transform="matrix(0.727394 -0.68622 0.727394 0.68622 38 802)" stroke="#0076BE" stroke-width="4"/>
<line y1="-2" x2="477" y2="-2" transform="matrix(0.727394 -0.68622 0.727394 0.68622 43 808)" stroke="#0076BE" stroke-width="4"/>
<line y1="-2" x2="477" y2="-2" transform="matrix(0.727394 -0.68622 0.727394 0.68622 48 814)" stroke="#0076BE" stroke-width="4"/>
<line y1="-2" x2="477" y2="-2" transform="matrix(0.727394 -0.68622 0.727394 0.68622 53 820)" stroke="#0076BE" stroke-width="4"/>
<line y1="-2" x2="477" y2="-2" transform="matrix(0.727394 -0.68622 0.727394 0.68622 58 826)" stroke="#0076BE" stroke-width="4"/>
<line y1="-2" x2="477" y2="-2" transform="matrix(0.727394 -0.68622 0.727394 0.68622 63 832)" stroke="#0076BE" stroke-width="4"/>
<line y1="-2" x2="477" y2="-2" transform="matrix(0.727394 -0.68622 0.727394 0.68622 68 838)" stroke="#0076BE" stroke-width="4"/>
<line y1="-2" x2="477" y2="-2" transform="matrix(0.727394 -0.68622 0.727394 0.68622 73 844)" stroke="#0076BE" stroke-width="4"/>
<line y1="-2" x2="477" y2="-2" transform="matrix(0.727394 -0.68622 0.727394 0.68622 78 850)" stroke="#0076BE" stroke-width="4"/>
<line y1="-2" x2="477" y2="-2" transform="matrix(0.727394 -0.68622 0.727394 0.68622 83 856)" stroke="#0076BE" stroke-width="4"/>
<line y1="-2" x2="477" y2="-2" transform="matrix(0.727394 -0.68622 0.727394 0.68622 88 862)" stroke="#0076BE" stroke-width="4"/>
<line y1="-2" x2="477" y2="-2" transform="matrix(0.727394 -0.68622 0.727394 0.68622 93 868)" stroke="#0076BE" stroke-width="4"/>
<line y1="-2" x2="477" y2="-2" transform="matrix(0.727394 -0.68622 0.727394 0.68622 98 874)" stroke="#0076BE" stroke-width="4"/>
<line y1="-2" x2="477" y2="-2" transform="matrix(0.727394 -0.68622 0.727394 0.68622 103 880)" stroke="#0076BE" stroke-width="4"/>
</g>
<g clip-path="url(#clip24_458_2482)">
<line y1="-2" x2="81.6064" y2="-2" transform="matrix(0.727394 -0.68622 0.727394 0.68622 -12 772)" stroke="#0076BE" stroke-width="4"/>
<line y1="-2" x2="81.6064" y2="-2" transform="matrix(0.727394 -0.68622 0.727394 0.68622 -7 778)" stroke="#0076BE" stroke-width="4"/>
<line y1="-2" x2="81.6064" y2="-2" transform="matrix(0.727394 -0.68622 0.727394 0.68622 -2 784)" stroke="#0076BE" stroke-width="4"/>
<line y1="-2" x2="81.6064" y2="-2" transform="matrix(0.727394 -0.68622 0.727394 0.68622 3 790)" stroke="#0076BE" stroke-width="4"/>
<line y1="-2" x2="81.6064" y2="-2" transform="matrix(0.727394 -0.68622 0.727394 0.68622 8 796)" stroke="#0076BE" stroke-width="4"/>
<line y1="-2" x2="81.6064" y2="-2" transform="matrix(0.727394 -0.68622 0.727394 0.68622 13 802)" stroke="#0076BE" stroke-width="4"/>
<line y1="-2" x2="477" y2="-2" transform="matrix(0.727394 -0.68622 0.727394 0.68622 18 808)" stroke="#0076BE" stroke-width="4"/>
<line y1="-2" x2="477" y2="-2" transform="matrix(0.727394 -0.68622 0.727394 0.68622 23 814)" stroke="#0076BE" stroke-width="4"/>
<line y1="-2" x2="477" y2="-2" transform="matrix(0.727394 -0.68622 0.727394 0.68622 28 820)" stroke="#0076BE" stroke-width="4"/>
<line y1="-2" x2="477" y2="-2" transform="matrix(0.727394 -0.68622 0.727394 0.68622 33 826)" stroke="#0076BE" stroke-width="4"/>
<line y1="-2" x2="477" y2="-2" transform="matrix(0.727394 -0.68622 0.727394 0.68622 38 832)" stroke="#0076BE" stroke-width="4"/>
<line y1="-2" x2="477" y2="-2" transform="matrix(0.727394 -0.68622 0.727394 0.68622 43 838)" stroke="#0076BE" stroke-width="4"/>
<line y1="-2" x2="477" y2="-2" transform="matrix(0.727394 -0.68622 0.727394 0.68622 48 844)" stroke="#0076BE" stroke-width="4"/>
<line y1="-2" x2="477" y2="-2" transform="matrix(0.727394 -0.68622 0.727394 0.68622 53 850)" stroke="#0076BE" stroke-width="4"/>
<line y1="-2" x2="477" y2="-2" transform="matrix(0.727394 -0.68622 0.727394 0.68622 58 856)" stroke="#0076BE" stroke-width="4"/>
<line y1="-2" x2="477" y2="-2" transform="matrix(0.727394 -0.68622 0.727394 0.68622 63 862)" stroke="#0076BE" stroke-width="4"/>
<line y1="-2" x2="477" y2="-2" transform="matrix(0.727394 -0.68622 0.727394 0.68622 68 868)" stroke="#0076BE" stroke-width="4"/>
<line y1="-2" x2="477" y2="-2" transform="matrix(0.727394 -0.68622 0.727394 0.68622 73 874)" stroke="#0076BE" stroke-width="4"/>
<line y1="-2" x2="477" y2="-2" transform="matrix(0.727394 -0.68622 0.727394 0.68622 78 880)" stroke="#0076BE" stroke-width="4"/>
<line y1="-2" x2="477" y2="-2" transform="matrix(0.727394 -0.68622 0.727394 0.68622 83 886)" stroke="#0076BE" stroke-width="4"/>
<line y1="-2" x2="477" y2="-2" transform="matrix(0.727394 -0.68622 0.727394 0.68622 88 892)" stroke="#0076BE" stroke-width="4"/>
<line y1="-2" x2="477" y2="-2" transform="matrix(0.727394 -0.68622 0.727394 0.68622 93 898)" stroke="#0076BE" stroke-width="4"/>
<line y1="-2" x2="477" y2="-2" transform="matrix(0.727394 -0.68622 0.727394 0.68622 98 904)" stroke="#0076BE" stroke-width="4"/>
<line y1="-2" x2="477" y2="-2" transform="matrix(0.727394 -0.68622 0.727394 0.68622 103 910)" stroke="#0076BE" stroke-width="4"/>
<line y1="-2" x2="477" y2="-2" transform="matrix(0.727394 -0.68622 0.727394 0.68622 108 916)" stroke="#0076BE" stroke-width="4"/>
</g>
<g clip-path="url(#clip25_458_2482)">
<line y1="-2" x2="81.6064" y2="-2" transform="matrix(0.727394 -0.68622 0.727394 0.68622 -12 802)" stroke="#0076BE" stroke-width="4"/>
<line y1="-2" x2="81.6064" y2="-2" transform="matrix(0.727394 -0.68622 0.727394 0.68622 -7 808)" stroke="#0076BE" stroke-width="4"/>
<line y1="-2" x2="81.6064" y2="-2" transform="matrix(0.727394 -0.68622 0.727394 0.68622 -2 814)" stroke="#0076BE" stroke-width="4"/>
<line y1="-2" x2="81.6064" y2="-2" transform="matrix(0.727394 -0.68622 0.727394 0.68622 3 820)" stroke="#0076BE" stroke-width="4"/>
<line y1="-2" x2="81.6064" y2="-2" transform="matrix(0.727394 -0.68622 0.727394 0.68622 8 826)" stroke="#0076BE" stroke-width="4"/>
<line y1="-2" x2="81.6064" y2="-2" transform="matrix(0.727394 -0.68622 0.727394 0.68622 13 832)" stroke="#0076BE" stroke-width="4"/>
<line y1="-2" x2="477" y2="-2" transform="matrix(0.727394 -0.68622 0.727394 0.68622 18 838)" stroke="#0076BE" stroke-width="4"/>
<line y1="-2" x2="477" y2="-2" transform="matrix(0.727394 -0.68622 0.727394 0.68622 23 844)" stroke="#0076BE" stroke-width="4"/>
<line y1="-2" x2="477" y2="-2" transform="matrix(0.727394 -0.68622 0.727394 0.68622 28 850)" stroke="#0076BE" stroke-width="4"/>
<line y1="-2" x2="477" y2="-2" transform="matrix(0.727394 -0.68622 0.727394 0.68622 33 856)" stroke="#0076BE" stroke-width="4"/>
<line y1="-2" x2="477" y2="-2" transform="matrix(0.727394 -0.68622 0.727394 0.68622 38 862)" stroke="#0076BE" stroke-width="4"/>
<line y1="-2" x2="477" y2="-2" transform="matrix(0.727394 -0.68622 0.727394 0.68622 43 868)" stroke="#0076BE" stroke-width="4"/>
<line y1="-2" x2="477" y2="-2" transform="matrix(0.727394 -0.68622 0.727394 0.68622 48 874)" stroke="#0076BE" stroke-width="4"/>
<line y1="-2" x2="477" y2="-2" transform="matrix(0.727394 -0.68622 0.727394 0.68622 53 880)" stroke="#0076BE" stroke-width="4"/>
<line y1="-2" x2="477" y2="-2" transform="matrix(0.727394 -0.68622 0.727394 0.68622 58 886)" stroke="#0076BE" stroke-width="4"/>
<line y1="-2" x2="477" y2="-2" transform="matrix(0.727394 -0.68622 0.727394 0.68622 63 892)" stroke="#0076BE" stroke-width="4"/>
<line y1="-2" x2="477" y2="-2" transform="matrix(0.727394 -0.68622 0.727394 0.68622 68 898)" stroke="#0076BE" stroke-width="4"/>
<line y1="-2" x2="477" y2="-2" transform="matrix(0.727394 -0.68622 0.727394 0.68622 73 904)" stroke="#0076BE" stroke-width="4"/>
<line y1="-2" x2="477" y2="-2" transform="matrix(0.727394 -0.68622 0.727394 0.68622 78 910)" stroke="#0076BE" stroke-width="4"/>
<line y1="-2" x2="477" y2="-2" transform="matrix(0.727394 -0.68622 0.727394 0.68622 83 916)" stroke="#0076BE" stroke-width="4"/>
<line y1="-2" x2="477" y2="-2" transform="matrix(0.727394 -0.68622 0.727394 0.68622 88 922)" stroke="#0076BE" stroke-width="4"/>
<line y1="-2" x2="477" y2="-2" transform="matrix(0.727394 -0.68622 0.727394 0.68622 93 928)" stroke="#0076BE" stroke-width="4"/>
<line y1="-2" x2="477" y2="-2" transform="matrix(0.727394 -0.68622 0.727394 0.68622 98 934)" stroke="#0076BE" stroke-width="4"/>
<line y1="-2" x2="477" y2="-2" transform="matrix(0.727394 -0.68622 0.727394 0.68622 103 940)" stroke="#0076BE" stroke-width="4"/>
<line y1="-2" x2="477" y2="-2" transform="matrix(0.727394 -0.68622 0.727394 0.68622 108 946)" stroke="#0076BE" stroke-width="4"/>
<line y1="-2" x2="477" y2="-2" transform="matrix(0.727394 -0.68622 0.727394 0.68622 113 952)" stroke="#0076BE" stroke-width="4"/>
</g>
<g clip-path="url(#clip26_458_2482)">
<line y1="-2" x2="81.6064" y2="-2" transform="matrix(0.727394 -0.68622 0.727394 0.68622 -12 832)" stroke="#0076BE" stroke-width="4"/>
<line y1="-2" x2="81.6064" y2="-2" transform="matrix(0.727394 -0.68622 0.727394 0.68622 -7 838)" stroke="#0076BE" stroke-width="4"/>
<line y1="-2" x2="81.6064" y2="-2" transform="matrix(0.727394 -0.68622 0.727394 0.68622 -2 844)" stroke="#0076BE" stroke-width="4"/>
<line y1="-2" x2="81.6064" y2="-2" transform="matrix(0.727394 -0.68622 0.727394 0.68622 3 850)" stroke="#0076BE" stroke-width="4"/>
<line y1="-2" x2="81.6064" y2="-2" transform="matrix(0.727394 -0.68622 0.727394 0.68622 8 856)" stroke="#0076BE" stroke-width="4"/>
<line y1="-2" x2="81.6064" y2="-2" transform="matrix(0.727394 -0.68622 0.727394 0.68622 13 862)" stroke="#0076BE" stroke-width="4"/>
<line y1="-2" x2="477" y2="-2" transform="matrix(0.727394 -0.68622 0.727394 0.68622 18 868)" stroke="#0076BE" stroke-width="4"/>
<line y1="-2" x2="477" y2="-2" transform="matrix(0.727394 -0.68622 0.727394 0.68622 23 874)" stroke="#0076BE" stroke-width="4"/>
<line y1="-2" x2="477" y2="-2" transform="matrix(0.727394 -0.68622 0.727394 0.68622 28 880)" stroke="#0076BE" stroke-width="4"/>
<line y1="-2" x2="477" y2="-2" transform="matrix(0.727394 -0.68622 0.727394 0.68622 33 886)" stroke="#0076BE" stroke-width="4"/>
<line y1="-2" x2="477" y2="-2" transform="matrix(0.727394 -0.68622 0.727394 0.68622 38 892)" stroke="#0076BE" stroke-width="4"/>
<line y1="-2" x2="477" y2="-2" transform="matrix(0.727394 -0.68622 0.727394 0.68622 43 898)" stroke="#0076BE" stroke-width="4"/>
<line y1="-2" x2="477" y2="-2" transform="matrix(0.727394 -0.68622 0.727394 0.68622 48 904)" stroke="#0076BE" stroke-width="4"/>
<line y1="-2" x2="477" y2="-2" transform="matrix(0.727394 -0.68622 0.727394 0.68622 53 910)" stroke="#0076BE" stroke-width="4"/>
<line y1="-2" x2="477" y2="-2" transform="matrix(0.727394 -0.68622 0.727394 0.68622 58 916)" stroke="#0076BE" stroke-width="4"/>
<line y1="-2" x2="477" y2="-2" transform="matrix(0.727394 -0.68622 0.727394 0.68622 63 922)" stroke="#0076BE" stroke-width="4"/>
<line y1="-2" x2="477" y2="-2" transform="matrix(0.727394 -0.68622 0.727394 0.68622 68 928)" stroke="#0076BE" stroke-width="4"/>
<line y1="-2" x2="477" y2="-2" transform="matrix(0.727394 -0.68622 0.727394 0.68622 73 934)" stroke="#0076BE" stroke-width="4"/>
<line y1="-2" x2="477" y2="-2" transform="matrix(0.727394 -0.68622 0.727394 0.68622 78 940)" stroke="#0076BE" stroke-width="4"/>
<line y1="-2" x2="477" y2="-2" transform="matrix(0.727394 -0.68622 0.727394 0.68622 83 946)" stroke="#0076BE" stroke-width="4"/>
<line y1="-2" x2="477" y2="-2" transform="matrix(0.727394 -0.68622 0.727394 0.68622 88 952)" stroke="#0076BE" stroke-width="4"/>
<line y1="-2" x2="477" y2="-2" transform="matrix(0.727394 -0.68622 0.727394 0.68622 93 958)" stroke="#0076BE" stroke-width="4"/>
<line y1="-2" x2="477" y2="-2" transform="matrix(0.727394 -0.68622 0.727394 0.68622 98 964)" stroke="#0076BE" stroke-width="4"/>
<line y1="-2" x2="477" y2="-2" transform="matrix(0.727394 -0.68622 0.727394 0.68622 103 970)" stroke="#0076BE" stroke-width="4"/>
<line y1="-2" x2="477" y2="-2" transform="matrix(0.727394 -0.68622 0.727394 0.68622 108 976)" stroke="#0076BE" stroke-width="4"/>
<line y1="-2" x2="477" y2="-2" transform="matrix(0.727394 -0.68622 0.727394 0.68622 113 982)" stroke="#0076BE" stroke-width="4"/>
<line y1="-2" x2="477" y2="-2" transform="matrix(0.727394 -0.68622 0.727394 0.68622 118 988)" stroke="#0076BE" stroke-width="4"/>
</g>
<g clip-path="url(#clip27_458_2482)">
<line y1="-2" x2="81.6064" y2="-2" transform="matrix(0.727394 -0.68622 0.727394 0.68622 -12 862)" stroke="#0076BE" stroke-width="4"/>
<line y1="-2" x2="81.6064" y2="-2" transform="matrix(0.727394 -0.68622 0.727394 0.68622 -7 868)" stroke="#0076BE" stroke-width="4"/>
<line y1="-2" x2="81.6064" y2="-2" transform="matrix(0.727394 -0.68622 0.727394 0.68622 -2 874)" stroke="#0076BE" stroke-width="4"/>
<line y1="-2" x2="81.6064" y2="-2" transform="matrix(0.727394 -0.68622 0.727394 0.68622 3 880)" stroke="#0076BE" stroke-width="4"/>
<line y1="-2" x2="81.6064" y2="-2" transform="matrix(0.727394 -0.68622 0.727394 0.68622 8 886)" stroke="#0076BE" stroke-width="4"/>
<line y1="-2" x2="81.6064" y2="-2" transform="matrix(0.727394 -0.68622 0.727394 0.68622 13 892)" stroke="#0076BE" stroke-width="4"/>
<line y1="-2" x2="477" y2="-2" transform="matrix(0.727394 -0.68622 0.727394 0.68622 18 898)" stroke="#0076BE" stroke-width="4"/>
<line y1="-2" x2="477" y2="-2" transform="matrix(0.727394 -0.68622 0.727394 0.68622 23 904)" stroke="#0076BE" stroke-width="4"/>
<line y1="-2" x2="477" y2="-2" transform="matrix(0.727394 -0.68622 0.727394 0.68622 28 910)" stroke="#0076BE" stroke-width="4"/>
<line y1="-2" x2="477" y2="-2" transform="matrix(0.727394 -0.68622 0.727394 0.68622 33 916)" stroke="#0076BE" stroke-width="4"/>
<line y1="-2" x2="477" y2="-2" transform="matrix(0.727394 -0.68622 0.727394 0.68622 38 922)" stroke="#0076BE" stroke-width="4"/>
<line y1="-2" x2="477" y2="-2" transform="matrix(0.727394 -0.68622 0.727394 0.68622 43 928)" stroke="#0076BE" stroke-width="4"/>
<line y1="-2" x2="477" y2="-2" transform="matrix(0.727394 -0.68622 0.727394 0.68622 48 934)" stroke="#0076BE" stroke-width="4"/>
<line y1="-2" x2="477" y2="-2" transform="matrix(0.727394 -0.68622 0.727394 0.68622 53 940)" stroke="#0076BE" stroke-width="4"/>
<line y1="-2" x2="477" y2="-2" transform="matrix(0.727394 -0.68622 0.727394 0.68622 58 946)" stroke="#0076BE" stroke-width="4"/>
<line y1="-2" x2="477" y2="-2" transform="matrix(0.727394 -0.68622 0.727394 0.68622 63 952)" stroke="#0076BE" stroke-width="4"/>
<line y1="-2" x2="477" y2="-2" transform="matrix(0.727394 -0.68622 0.727394 0.68622 68 958)" stroke="#0076BE" stroke-width="4"/>
<line y1="-2" x2="477" y2="-2" transform="matrix(0.727394 -0.68622 0.727394 0.68622 73 964)" stroke="#0076BE" stroke-width="4"/>
<line y1="-2" x2="477" y2="-2" transform="matrix(0.727394 -0.68622 0.727394 0.68622 78 970)" stroke="#0076BE" stroke-width="4"/>
<line y1="-2" x2="477" y2="-2" transform="matrix(0.727394 -0.68622 0.727394 0.68622 83 976)" stroke="#0076BE" stroke-width="4"/>
<line y1="-2" x2="477" y2="-2" transform="matrix(0.727394 -0.68622 0.727394 0.68622 88 982)" stroke="#0076BE" stroke-width="4"/>
<line y1="-2" x2="477" y2="-2" transform="matrix(0.727394 -0.68622 0.727394 0.68622 93 988)" stroke="#0076BE" stroke-width="4"/>
<line y1="-2" x2="477" y2="-2" transform="matrix(0.727394 -0.68622 0.727394 0.68622 98 994)" stroke="#0076BE" stroke-width="4"/>
<line y1="-2" x2="477" y2="-2" transform="matrix(0.727394 -0.68622 0.727394 0.68622 103 1000)" stroke="#0076BE" stroke-width="4"/>
<line y1="-2" x2="477" y2="-2" transform="matrix(0.727394 -0.68622 0.727394 0.68622 108 1006)" stroke="#0076BE" stroke-width="4"/>
<line y1="-2" x2="477" y2="-2" transform="matrix(0.727394 -0.68622 0.727394 0.68622 113 1012)" stroke="#0076BE" stroke-width="4"/>
<line y1="-2" x2="477" y2="-2" transform="matrix(0.727394 -0.68622 0.727394 0.68622 118 1018)" stroke="#0076BE" stroke-width="4"/>
<line y1="-2" x2="477" y2="-2" transform="matrix(0.727394 -0.68622 0.727394 0.68622 123 1024)" stroke="#0076BE" stroke-width="4"/>
</g>
<g clip-path="url(#clip28_458_2482)">
<line y1="-2" x2="81.6064" y2="-2" transform="matrix(0.727394 -0.68622 0.727394 0.68622 -12 892)" stroke="#0076BE" stroke-width="4"/>
<line y1="-2" x2="81.6064" y2="-2" transform="matrix(0.727394 -0.68622 0.727394 0.68622 -7 898)" stroke="#0076BE" stroke-width="4"/>
<line y1="-2" x2="81.6064" y2="-2" transform="matrix(0.727394 -0.68622 0.727394 0.68622 -2 904)" stroke="#0076BE" stroke-width="4"/>
<line y1="-2" x2="81.6064" y2="-2" transform="matrix(0.727394 -0.68622 0.727394 0.68622 3 910)" stroke="#0076BE" stroke-width="4"/>
<line y1="-2" x2="81.6064" y2="-2" transform="matrix(0.727394 -0.68622 0.727394 0.68622 8 916)" stroke="#0076BE" stroke-width="4"/>
<line y1="-2" x2="81.6064" y2="-2" transform="matrix(0.727394 -0.68622 0.727394 0.68622 13 922)" stroke="#0076BE" stroke-width="4"/>
<line y1="-2" x2="477" y2="-2" transform="matrix(0.727394 -0.68622 0.727394 0.68622 18 928)" stroke="#0076BE" stroke-width="4"/>
<line y1="-2" x2="477" y2="-2" transform="matrix(0.727394 -0.68622 0.727394 0.68622 23 934)" stroke="#0076BE" stroke-width="4"/>
<line y1="-2" x2="477" y2="-2" transform="matrix(0.727394 -0.68622 0.727394 0.68622 28 940)" stroke="#0076BE" stroke-width="4"/>
<line y1="-2" x2="477" y2="-2" transform="matrix(0.727394 -0.68622 0.727394 0.68622 33 946)" stroke="#0076BE" stroke-width="4"/>
<line y1="-2" x2="477" y2="-2" transform="matrix(0.727394 -0.68622 0.727394 0.68622 38 952)" stroke="#0076BE" stroke-width="4"/>
<line y1="-2" x2="477" y2="-2" transform="matrix(0.727394 -0.68622 0.727394 0.68622 43 958)" stroke="#0076BE" stroke-width="4"/>
<line y1="-2" x2="477" y2="-2" transform="matrix(0.727394 -0.68622 0.727394 0.68622 48 964)" stroke="#0076BE" stroke-width="4"/>
<line y1="-2" x2="477" y2="-2" transform="matrix(0.727394 -0.68622 0.727394 0.68622 53 970)" stroke="#0076BE" stroke-width="4"/>
<line y1="-2" x2="477" y2="-2" transform="matrix(0.727394 -0.68622 0.727394 0.68622 58 976)" stroke="#0076BE" stroke-width="4"/>
<line y1="-2" x2="477" y2="-2" transform="matrix(0.727394 -0.68622 0.727394 0.68622 63 982)" stroke="#0076BE" stroke-width="4"/>
<line y1="-2" x2="477" y2="-2" transform="matrix(0.727394 -0.68622 0.727394 0.68622 68 988)" stroke="#0076BE" stroke-width="4"/>
<line y1="-2" x2="477" y2="-2" transform="matrix(0.727394 -0.68622 0.727394 0.68622 73 994)" stroke="#0076BE" stroke-width="4"/>
<line y1="-2" x2="477" y2="-2" transform="matrix(0.727394 -0.68622 0.727394 0.68622 78 1000)" stroke="#0076BE" stroke-width="4"/>
<line y1="-2" x2="477" y2="-2" transform="matrix(0.727394 -0.68622 0.727394 0.68622 83 1006)" stroke="#0076BE" stroke-width="4"/>
<line y1="-2" x2="477" y2="-2" transform="matrix(0.727394 -0.68622 0.727394 0.68622 88 1012)" stroke="#0076BE" stroke-width="4"/>
<line y1="-2" x2="477" y2="-2" transform="matrix(0.727394 -0.68622 0.727394 0.68622 93 1018)" stroke="#0076BE" stroke-width="4"/>
<line y1="-2" x2="477" y2="-2" transform="matrix(0.727394 -0.68622 0.727394 0.68622 98 1024)" stroke="#0076BE" stroke-width="4"/>
<line y1="-2" x2="477" y2="-2" transform="matrix(0.727394 -0.68622 0.727394 0.68622 103 1030)" stroke="#0076BE" stroke-width="4"/>
<line y1="-2" x2="477" y2="-2" transform="matrix(0.727394 -0.68622 0.727394 0.68622 108 1036)" stroke="#0076BE" stroke-width="4"/>
<line y1="-2" x2="477" y2="-2" transform="matrix(0.727394 -0.68622 0.727394 0.68622 113 1042)" stroke="#0076BE" stroke-width="4"/>
<line y1="-2" x2="477" y2="-2" transform="matrix(0.727394 -0.68622 0.727394 0.68622 118 1048)" stroke="#0076BE" stroke-width="4"/>
<line y1="-2" x2="477" y2="-2" transform="matrix(0.727394 -0.68622 0.727394 0.68622 123 1054)" stroke="#0076BE" stroke-width="4"/>
<line y1="-2" x2="477" y2="-2" transform="matrix(0.727394 -0.68622 0.727394 0.68622 128 1060)" stroke="#0076BE" stroke-width="4"/>
</g>
<g clip-path="url(#clip29_458_2482)">
<line y1="-2" x2="81.6064" y2="-2" transform="matrix(0.727394 -0.68622 0.727394 0.68622 -12 922)" stroke="#0076BE" stroke-width="4"/>
<line y1="-2" x2="81.6064" y2="-2" transform="matrix(0.727394 -0.68622 0.727394 0.68622 -7 928)" stroke="#0076BE" stroke-width="4"/>
<line y1="-2" x2="81.6064" y2="-2" transform="matrix(0.727394 -0.68622 0.727394 0.68622 -2 934)" stroke="#0076BE" stroke-width="4"/>
<line y1="-2" x2="81.6064" y2="-2" transform="matrix(0.727394 -0.68622 0.727394 0.68622 3 940)" stroke="#0076BE" stroke-width="4"/>
<line y1="-2" x2="81.6064" y2="-2" transform="matrix(0.727394 -0.68622 0.727394 0.68622 8 946)" stroke="#0076BE" stroke-width="4"/>
<line y1="-2" x2="81.6064" y2="-2" transform="matrix(0.727394 -0.68622 0.727394 0.68622 13 952)" stroke="#0076BE" stroke-width="4"/>
<line y1="-2" x2="477" y2="-2" transform="matrix(0.727394 -0.68622 0.727394 0.68622 18 958)" stroke="#0076BE" stroke-width="4"/>
<line y1="-2" x2="477" y2="-2" transform="matrix(0.727394 -0.68622 0.727394 0.68622 23 964)" stroke="#0076BE" stroke-width="4"/>
<line y1="-2" x2="477" y2="-2" transform="matrix(0.727394 -0.68622 0.727394 0.68622 28 970)" stroke="#0076BE" stroke-width="4"/>
<line y1="-2" x2="477" y2="-2" transform="matrix(0.727394 -0.68622 0.727394 0.68622 33 976)" stroke="#0076BE" stroke-width="4"/>
<line y1="-2" x2="477" y2="-2" transform="matrix(0.727394 -0.68622 0.727394 0.68622 38 982)" stroke="#0076BE" stroke-width="4"/>
<line y1="-2" x2="477" y2="-2" transform="matrix(0.727394 -0.68622 0.727394 0.68622 43 988)" stroke="#0076BE" stroke-width="4"/>
<line y1="-2" x2="477" y2="-2" transform="matrix(0.727394 -0.68622 0.727394 0.68622 48 994)" stroke="#0076BE" stroke-width="4"/>
<line y1="-2" x2="477" y2="-2" transform="matrix(0.727394 -0.68622 0.727394 0.68622 53 1000)" stroke="#0076BE" stroke-width="4"/>
<line y1="-2" x2="477" y2="-2" transform="matrix(0.727394 -0.68622 0.727394 0.68622 58 1006)" stroke="#0076BE" stroke-width="4"/>
<line y1="-2" x2="477" y2="-2" transform="matrix(0.727394 -0.68622 0.727394 0.68622 63 1012)" stroke="#0076BE" stroke-width="4"/>
<line y1="-2" x2="477" y2="-2" transform="matrix(0.727394 -0.68622 0.727394 0.68622 68 1018)" stroke="#0076BE" stroke-width="4"/>
<line y1="-2" x2="477" y2="-2" transform="matrix(0.727394 -0.68622 0.727394 0.68622 73 1024)" stroke="#0076BE" stroke-width="4"/>
<line y1="-2" x2="477" y2="-2" transform="matrix(0.727394 -0.68622 0.727394 0.68622 78 1030)" stroke="#0076BE" stroke-width="4"/>
<line y1="-2" x2="477" y2="-2" transform="matrix(0.727394 -0.68622 0.727394 0.68622 83 1036)" stroke="#0076BE" stroke-width="4"/>
<line y1="-2" x2="477" y2="-2" transform="matrix(0.727394 -0.68622 0.727394 0.68622 88 1042)" stroke="#0076BE" stroke-width="4"/>
<line y1="-2" x2="477" y2="-2" transform="matrix(0.727394 -0.68622 0.727394 0.68622 93 1048)" stroke="#0076BE" stroke-width="4"/>
<line y1="-2" x2="477" y2="-2" transform="matrix(0.727394 -0.68622 0.727394 0.68622 98 1054)" stroke="#0076BE" stroke-width="4"/>
<line y1="-2" x2="477" y2="-2" transform="matrix(0.727394 -0.68622 0.727394 0.68622 103 1060)" stroke="#0076BE" stroke-width="4"/>
<line y1="-2" x2="477" y2="-2" transform="matrix(0.727394 -0.68622 0.727394 0.68622 108 1066)" stroke="#0076BE" stroke-width="4"/>
<line y1="-2" x2="477" y2="-2" transform="matrix(0.727394 -0.68622 0.727394 0.68622 113 1072)" stroke="#0076BE" stroke-width="4"/>
<line y1="-2" x2="477" y2="-2" transform="matrix(0.727394 -0.68622 0.727394 0.68622 118 1078)" stroke="#0076BE" stroke-width="4"/>
<line y1="-2" x2="477" y2="-2" transform="matrix(0.727394 -0.68622 0.727394 0.68622 123 1084)" stroke="#0076BE" stroke-width="4"/>
<line y1="-2" x2="477" y2="-2" transform="matrix(0.727394 -0.68622 0.727394 0.68622 128 1090)" stroke="#0076BE" stroke-width="4"/>
<line y1="-2" x2="477" y2="-2" transform="matrix(0.727394 -0.68622 0.727394 0.68622 133 1096)" stroke="#0076BE" stroke-width="4"/>
</g>
<g clip-path="url(#clip30_458_2482)">
<line y1="-2" x2="81.6064" y2="-2" transform="matrix(0.727394 -0.68622 0.727394 0.68622 -12 952)" stroke="#0076BE" stroke-width="4"/>
<line y1="-2" x2="81.6064" y2="-2" transform="matrix(0.727394 -0.68622 0.727394 0.68622 -7 958)" stroke="#0076BE" stroke-width="4"/>
<line y1="-2" x2="81.6064" y2="-2" transform="matrix(0.727394 -0.68622 0.727394 0.68622 -2 964)" stroke="#0076BE" stroke-width="4"/>
<line y1="-2" x2="81.6064" y2="-2" transform="matrix(0.727394 -0.68622 0.727394 0.68622 3 970)" stroke="#0076BE" stroke-width="4"/>
<line y1="-2" x2="81.6064" y2="-2" transform="matrix(0.727394 -0.68622 0.727394 0.68622 8 976)" stroke="#0076BE" stroke-width="4"/>
<line y1="-2" x2="81.6064" y2="-2" transform="matrix(0.727394 -0.68622 0.727394 0.68622 13 982)" stroke="#0076BE" stroke-width="4"/>
<line y1="-2" x2="477" y2="-2" transform="matrix(0.727394 -0.68622 0.727394 0.68622 18 988)" stroke="#0076BE" stroke-width="4"/>
<line y1="-2" x2="477" y2="-2" transform="matrix(0.727394 -0.68622 0.727394 0.68622 23 994)" stroke="#0076BE" stroke-width="4"/>
<line y1="-2" x2="477" y2="-2" transform="matrix(0.727394 -0.68622 0.727394 0.68622 28 1000)" stroke="#0076BE" stroke-width="4"/>
<line y1="-2" x2="477" y2="-2" transform="matrix(0.727394 -0.68622 0.727394 0.68622 33 1006)" stroke="#0076BE" stroke-width="4"/>
<line y1="-2" x2="477" y2="-2" transform="matrix(0.727394 -0.68622 0.727394 0.68622 38 1012)" stroke="#0076BE" stroke-width="4"/>
<line y1="-2" x2="477" y2="-2" transform="matrix(0.727394 -0.68622 0.727394 0.68622 43 1018)" stroke="#0076BE" stroke-width="4"/>
<line y1="-2" x2="477" y2="-2" transform="matrix(0.727394 -0.68622 0.727394 0.68622 48 1024)" stroke="#0076BE" stroke-width="4"/>
<line y1="-2" x2="477" y2="-2" transform="matrix(0.727394 -0.68622 0.727394 0.68622 53 1030)" stroke="#0076BE" stroke-width="4"/>
<line y1="-2" x2="477" y2="-2" transform="matrix(0.727394 -0.68622 0.727394 0.68622 58 1036)" stroke="#0076BE" stroke-width="4"/>
<line y1="-2" x2="477" y2="-2" transform="matrix(0.727394 -0.68622 0.727394 0.68622 63 1042)" stroke="#0076BE" stroke-width="4"/>
<line y1="-2" x2="477" y2="-2" transform="matrix(0.727394 -0.68622 0.727394 0.68622 68 1048)" stroke="#0076BE" stroke-width="4"/>
<line y1="-2" x2="477" y2="-2" transform="matrix(0.727394 -0.68622 0.727394 0.68622 73 1054)" stroke="#0076BE" stroke-width="4"/>
<line y1="-2" x2="477" y2="-2" transform="matrix(0.727394 -0.68622 0.727394 0.68622 78 1060)" stroke="#0076BE" stroke-width="4"/>
<line y1="-2" x2="477" y2="-2" transform="matrix(0.727394 -0.68622 0.727394 0.68622 83 1066)" stroke="#0076BE" stroke-width="4"/>
<line y1="-2" x2="477" y2="-2" transform="matrix(0.727394 -0.68622 0.727394 0.68622 88 1072)" stroke="#0076BE" stroke-width="4"/>
<line y1="-2" x2="477" y2="-2" transform="matrix(0.727394 -0.68622 0.727394 0.68622 93 1078)" stroke="#0076BE" stroke-width="4"/>
<line y1="-2" x2="477" y2="-2" transform="matrix(0.727394 -0.68622 0.727394 0.68622 98 1084)" stroke="#0076BE" stroke-width="4"/>
<line y1="-2" x2="477" y2="-2" transform="matrix(0.727394 -0.68622 0.727394 0.68622 103 1090)" stroke="#0076BE" stroke-width="4"/>
<line y1="-2" x2="477" y2="-2" transform="matrix(0.727394 -0.68622 0.727394 0.68622 108 1096)" stroke="#0076BE" stroke-width="4"/>
<line y1="-2" x2="477" y2="-2" transform="matrix(0.727394 -0.68622 0.727394 0.68622 113 1102)" stroke="#0076BE" stroke-width="4"/>
<line y1="-2" x2="477" y2="-2" transform="matrix(0.727394 -0.68622 0.727394 0.68622 118 1108)" stroke="#0076BE" stroke-width="4"/>
<line y1="-2" x2="477" y2="-2" transform="matrix(0.727394 -0.68622 0.727394 0.68622 123 1114)" stroke="#0076BE" stroke-width="4"/>
<line y1="-2" x2="477" y2="-2" transform="matrix(0.727394 -0.68622 0.727394 0.68622 128 1120)" stroke="#0076BE" stroke-width="4"/>
<line y1="-2" x2="477" y2="-2" transform="matrix(0.727394 -0.68622 0.727394 0.68622 133 1126)" stroke="#0076BE" stroke-width="4"/>
<line y1="-2" x2="477" y2="-2" transform="matrix(0.727394 -0.68622 0.727394 0.68622 138 1132)" stroke="#0076BE" stroke-width="4"/>
</g>
<g clip-path="url(#clip31_458_2482)">
<line y1="-2" x2="81.6064" y2="-2" transform="matrix(0.727394 -0.68622 0.727394 0.68622 -12 982)" stroke="#0076BE" stroke-width="4"/>
<line y1="-2" x2="81.6064" y2="-2" transform="matrix(0.727394 -0.68622 0.727394 0.68622 -7 988)" stroke="#0076BE" stroke-width="4"/>
<line y1="-2" x2="81.6064" y2="-2" transform="matrix(0.727394 -0.68622 0.727394 0.68622 -2 994)" stroke="#0076BE" stroke-width="4"/>
<line y1="-2" x2="81.6064" y2="-2" transform="matrix(0.727394 -0.68622 0.727394 0.68622 3 1000)" stroke="#0076BE" stroke-width="4"/>
<line y1="-2" x2="81.6064" y2="-2" transform="matrix(0.727394 -0.68622 0.727394 0.68622 8 1006)" stroke="#0076BE" stroke-width="4"/>
<line y1="-2" x2="81.6064" y2="-2" transform="matrix(0.727394 -0.68622 0.727394 0.68622 13 1012)" stroke="#0076BE" stroke-width="4"/>
<line y1="-2" x2="477" y2="-2" transform="matrix(0.727394 -0.68622 0.727394 0.68622 18 1018)" stroke="#0076BE" stroke-width="4"/>
<line y1="-2" x2="477" y2="-2" transform="matrix(0.727394 -0.68622 0.727394 0.68622 23 1024)" stroke="#0076BE" stroke-width="4"/>
<line y1="-2" x2="477" y2="-2" transform="matrix(0.727394 -0.68622 0.727394 0.68622 28 1030)" stroke="#0076BE" stroke-width="4"/>
<line y1="-2" x2="477" y2="-2" transform="matrix(0.727394 -0.68622 0.727394 0.68622 33 1036)" stroke="#0076BE" stroke-width="4"/>
<line y1="-2" x2="477" y2="-2" transform="matrix(0.727394 -0.68622 0.727394 0.68622 38 1042)" stroke="#0076BE" stroke-width="4"/>
<line y1="-2" x2="477" y2="-2" transform="matrix(0.727394 -0.68622 0.727394 0.68622 43 1048)" stroke="#0076BE" stroke-width="4"/>
<line y1="-2" x2="477" y2="-2" transform="matrix(0.727394 -0.68622 0.727394 0.68622 48 1054)" stroke="#0076BE" stroke-width="4"/>
<line y1="-2" x2="477" y2="-2" transform="matrix(0.727394 -0.68622 0.727394 0.68622 53 1060)" stroke="#0076BE" stroke-width="4"/>
<line y1="-2" x2="477" y2="-2" transform="matrix(0.727394 -0.68622 0.727394 0.68622 58 1066)" stroke="#0076BE" stroke-width="4"/>
<line y1="-2" x2="477" y2="-2" transform="matrix(0.727394 -0.68622 0.727394 0.68622 63 1072)" stroke="#0076BE" stroke-width="4"/>
<line y1="-2" x2="477" y2="-2" transform="matrix(0.727394 -0.68622 0.727394 0.68622 68 1078)" stroke="#0076BE" stroke-width="4"/>
<line y1="-2" x2="477" y2="-2" transform="matrix(0.727394 -0.68622 0.727394 0.68622 73 1084)" stroke="#0076BE" stroke-width="4"/>
<line y1="-2" x2="477" y2="-2" transform="matrix(0.727394 -0.68622 0.727394 0.68622 78 1090)" stroke="#0076BE" stroke-width="4"/>
<line y1="-2" x2="477" y2="-2" transform="matrix(0.727394 -0.68622 0.727394 0.68622 83 1096)" stroke="#0076BE" stroke-width="4"/>
<line y1="-2" x2="477" y2="-2" transform="matrix(0.727394 -0.68622 0.727394 0.68622 88 1102)" stroke="#0076BE" stroke-width="4"/>
<line y1="-2" x2="477" y2="-2" transform="matrix(0.727394 -0.68622 0.727394 0.68622 93 1108)" stroke="#0076BE" stroke-width="4"/>
<line y1="-2" x2="477" y2="-2" transform="matrix(0.727394 -0.68622 0.727394 0.68622 98 1114)" stroke="#0076BE" stroke-width="4"/>
<line y1="-2" x2="477" y2="-2" transform="matrix(0.727394 -0.68622 0.727394 0.68622 103 1120)" stroke="#0076BE" stroke-width="4"/>
<line y1="-2" x2="477" y2="-2" transform="matrix(0.727394 -0.68622 0.727394 0.68622 108 1126)" stroke="#0076BE" stroke-width="4"/>
<line y1="-2" x2="477" y2="-2" transform="matrix(0.727394 -0.68622 0.727394 0.68622 113 1132)" stroke="#0076BE" stroke-width="4"/>
<line y1="-2" x2="477" y2="-2" transform="matrix(0.727394 -0.68622 0.727394 0.68622 118 1138)" stroke="#0076BE" stroke-width="4"/>
<line y1="-2" x2="477" y2="-2" transform="matrix(0.727394 -0.68622 0.727394 0.68622 123 1144)" stroke="#0076BE" stroke-width="4"/>
<line y1="-2" x2="477" y2="-2" transform="matrix(0.727394 -0.68622 0.727394 0.68622 128 1150)" stroke="#0076BE" stroke-width="4"/>
<line y1="-2" x2="477" y2="-2" transform="matrix(0.727394 -0.68622 0.727394 0.68622 133 1156)" stroke="#0076BE" stroke-width="4"/>
<line y1="-2" x2="477" y2="-2" transform="matrix(0.727394 -0.68622 0.727394 0.68622 138 1162)" stroke="#0076BE" stroke-width="4"/>
<line y1="-2" x2="477" y2="-2" transform="matrix(0.727394 -0.68622 0.727394 0.68622 143 1168)" stroke="#0076BE" stroke-width="4"/>
</g>
<defs>
<clipPath id="clip0_458_2482">
<rect width="337" height="28" fill="white" transform="translate(0 30)"/>
</clipPath>
<clipPath id="clip1_458_2482">
<rect width="337" height="28" fill="white" transform="translate(0 60)"/>
</clipPath>
<clipPath id="clip2_458_2482">
<rect width="337" height="28" fill="white" transform="translate(0 90)"/>
</clipPath>
<clipPath id="clip3_458_2482">
<rect width="337" height="28" fill="white" transform="translate(0 120)"/>
</clipPath>
<clipPath id="clip4_458_2482">
<rect width="337" height="28" fill="white" transform="translate(0 150)"/>
</clipPath>
<clipPath id="clip5_458_2482">
<rect width="337" height="28" fill="white" transform="translate(0 180)"/>
</clipPath>
<clipPath id="clip6_458_2482">
<rect width="337" height="28" fill="white" transform="translate(0 210)"/>
</clipPath>
<clipPath id="clip7_458_2482">
<rect width="337" height="28" fill="white" transform="translate(0 240)"/>
</clipPath>
<clipPath id="clip8_458_2482">
<rect width="337" height="28" fill="white" transform="translate(0 270)"/>
</clipPath>
<clipPath id="clip9_458_2482">
<rect width="337" height="28" fill="white" transform="translate(0 300)"/>
</clipPath>
<clipPath id="clip10_458_2482">
<rect width="337" height="28" fill="white" transform="translate(0 330)"/>
</clipPath>
<clipPath id="clip11_458_2482">
<rect width="337" height="28" fill="white" transform="translate(0 360)"/>
</clipPath>
<clipPath id="clip12_458_2482">
<rect width="337" height="28" fill="white" transform="translate(0 390)"/>
</clipPath>
<clipPath id="clip13_458_2482">
<rect width="337" height="28" fill="white" transform="translate(0 420)"/>
</clipPath>
<clipPath id="clip14_458_2482">
<rect width="337" height="28" fill="white" transform="translate(0 450)"/>
</clipPath>
<clipPath id="clip15_458_2482">
<rect width="337" height="28" fill="white" transform="translate(0 480)"/>
</clipPath>
<clipPath id="clip16_458_2482">
<rect width="337" height="28" fill="white" transform="translate(0 510)"/>
</clipPath>
<clipPath id="clip17_458_2482">
<rect width="337" height="28" fill="white" transform="translate(0 540)"/>
</clipPath>
<clipPath id="clip18_458_2482">
<rect width="337" height="28" fill="white" transform="translate(0 570)"/>
</clipPath>
<clipPath id="clip19_458_2482">
<rect width="337" height="28" fill="white" transform="translate(0 600)"/>
</clipPath>
<clipPath id="clip20_458_2482">
<rect width="337" height="28" fill="white" transform="translate(0 630)"/>
</clipPath>
<clipPath id="clip21_458_2482">
<rect width="337" height="28" fill="white" transform="translate(0 660)"/>
</clipPath>
<clipPath id="clip22_458_2482">
<rect width="337" height="28" fill="white" transform="translate(0 690)"/>
</clipPath>
<clipPath id="clip23_458_2482">
<rect width="337" height="28" fill="white" transform="translate(0 720)"/>
</clipPath>
<clipPath id="clip24_458_2482">
<rect width="337" height="28" fill="white" transform="translate(0 750)"/>
</clipPath>
<clipPath id="clip25_458_2482">
<rect width="337" height="28" fill="white" transform="translate(0 780)"/>
</clipPath>
<clipPath id="clip26_458_2482">
<rect width="337" height="28" fill="white" transform="translate(0 810)"/>
</clipPath>
<clipPath id="clip27_458_2482">
<rect width="337" height="28" fill="white" transform="translate(0 840)"/>
</clipPath>
<clipPath id="clip28_458_2482">
<rect width="337" height="28" fill="white" transform="translate(0 870)"/>
</clipPath>
<clipPath id="clip29_458_2482">
<rect width="337" height="28" fill="white" transform="translate(0 900)"/>
</clipPath>
<clipPath id="clip30_458_2482">
<rect width="337" height="28" fill="white" transform="translate(0 930)"/>
</clipPath>
<clipPath id="clip31_458_2482">
<rect width="337" height="28" fill="white" transform="translate(0 960)"/>
</clipPath>
</defs>
</svg>
