<svg width="1317" height="31" viewBox="0 0 1317 31" fill="none" xmlns="http://www.w3.org/2000/svg">
<g clip-path="url(#clip0_301_2)">
<mask id="mask0_301_2" style="mask-type:alpha" maskUnits="userSpaceOnUse" x="-40" y="-147" width="1387" height="380">
<path d="M-38.124 31.3457L220.876 -144.654" stroke="#0076BE" stroke-width="4"/>
<path d="M177.876 126.346L436.876 -49.6543" stroke="#0076BE" stroke-width="4"/>
<path d="M322.876 108.346L581.876 -67.6543" stroke="#0076BE" stroke-width="4"/>
<path d="M-30.124 39.3457L228.876 -136.654" stroke="#0076BE" stroke-width="4"/>
<path d="M185.876 134.346L444.876 -41.6543" stroke="#0076BE" stroke-width="4"/>
<path d="M330.876 116.346L589.876 -59.6543" stroke="#0076BE" stroke-width="4"/>
<path d="M-22.124 47.3457L236.876 -128.654" stroke="#0076BE" stroke-width="4"/>
<path d="M193.876 142.346L452.876 -33.6543" stroke="#0076BE" stroke-width="4"/>
<path d="M338.876 124.346L597.876 -51.6543" stroke="#0076BE" stroke-width="4"/>
<path d="M-14.124 55.3457L244.876 -120.654" stroke="#0076BE" stroke-width="4"/>
<path d="M201.876 150.346L460.876 -25.6543" stroke="#0076BE" stroke-width="4"/>
<path d="M346.876 132.346L605.876 -43.6543" stroke="#0076BE" stroke-width="4"/>
<path d="M-6.12402 63.3457L252.876 -112.654" stroke="#0076BE" stroke-width="4"/>
<path d="M209.876 158.346L468.876 -17.6542" stroke="#0076BE" stroke-width="4"/>
<path d="M354.876 140.346L613.876 -35.6543" stroke="#0076BE" stroke-width="4"/>
<path d="M1.87598 71.3459L260.876 -104.654" stroke="#0076BE" stroke-width="4"/>
<path d="M217.876 166.346L476.876 -9.65424" stroke="#0076BE" stroke-width="4"/>
<path d="M362.876 148.346L621.876 -27.6543" stroke="#0076BE" stroke-width="4"/>
<path d="M9.87598 79.3459L268.876 -96.6543" stroke="#0076BE" stroke-width="4"/>
<path d="M225.876 174.346L484.876 -1.65424" stroke="#0076BE" stroke-width="4"/>
<path d="M370.876 156.346L629.876 -19.6543" stroke="#0076BE" stroke-width="4"/>
<path d="M17.876 87.3459L276.876 -88.6543" stroke="#0076BE" stroke-width="4"/>
<path d="M233.876 182.346L492.876 6.34576" stroke="#0076BE" stroke-width="4"/>
<path d="M378.876 164.346L637.876 -11.6542" stroke="#0076BE" stroke-width="4"/>
<path d="M25.876 95.3459L284.876 -80.6543" stroke="#0076BE" stroke-width="4"/>
<path d="M241.876 190.346L500.876 14.3458" stroke="#0076BE" stroke-width="4"/>
<path d="M33.876 103.346L292.876 -72.6543" stroke="#0076BE" stroke-width="4"/>
<path d="M249.876 198.346L508.876 22.3458" stroke="#0076BE" stroke-width="4"/>
<path d="M41.876 111.346L300.876 -64.6543" stroke="#0076BE" stroke-width="4"/>
<path d="M257.876 206.346L516.876 30.3458" stroke="#0076BE" stroke-width="4"/>
<path d="M49.876 119.346L308.876 -56.6543" stroke="#0076BE" stroke-width="4"/>
<path d="M57.876 127.346L316.876 -48.6543" stroke="#0076BE" stroke-width="4"/>
<path d="M65.876 135.346L324.876 -40.6543" stroke="#0076BE" stroke-width="4"/>
<path d="M73.876 143.346L332.876 -32.6543" stroke="#0076BE" stroke-width="4"/>
<path d="M81.876 151.346L340.876 -24.6543" stroke="#0076BE" stroke-width="4"/>
<path d="M89.876 159.346L348.876 -16.6542" stroke="#0076BE" stroke-width="4"/>
<path d="M97.876 167.346L356.876 -8.65424" stroke="#0076BE" stroke-width="4"/>
<path d="M493.876 99.3459L752.876 -76.6543" stroke="#0076BE" stroke-width="4"/>
<path d="M501.876 107.346L760.876 -68.6543" stroke="#0076BE" stroke-width="4"/>
<path d="M509.876 115.346L768.876 -60.6543" stroke="#0076BE" stroke-width="4"/>
<path d="M517.876 123.346L776.876 -52.6543" stroke="#0076BE" stroke-width="4"/>
<path d="M525.876 131.346L784.876 -44.6543" stroke="#0076BE" stroke-width="4"/>
<path d="M533.876 139.346L792.876 -36.6543" stroke="#0076BE" stroke-width="4"/>
<path d="M541.876 147.346L800.876 -28.6543" stroke="#0076BE" stroke-width="4"/>
<path d="M549.876 155.346L808.876 -20.6543" stroke="#0076BE" stroke-width="4"/>
<path d="M557.876 163.346L816.876 -12.6542" stroke="#0076BE" stroke-width="4"/>
<path d="M565.876 171.346L824.876 -4.65424" stroke="#0076BE" stroke-width="4"/>
<path d="M727.876 74.3459L986.88 -101.654" stroke="#0076BE" stroke-width="4"/>
<path d="M735.876 82.3459L994.88 -93.6543" stroke="#0076BE" stroke-width="4"/>
<path d="M743.876 90.3459L1002.88 -85.6543" stroke="#0076BE" stroke-width="4"/>
<path d="M751.876 98.3459L1010.88 -77.6543" stroke="#0076BE" stroke-width="4"/>
<path d="M759.876 106.346L1018.88 -69.6543" stroke="#0076BE" stroke-width="4"/>
<path d="M767.876 114.346L1026.88 -61.6543" stroke="#0076BE" stroke-width="4"/>
<path d="M775.876 122.346L1034.88 -53.6543" stroke="#0076BE" stroke-width="4"/>
<path d="M783.876 130.346L1042.88 -45.6543" stroke="#0076BE" stroke-width="4"/>
<path d="M791.876 138.346L1050.88 -37.6543" stroke="#0076BE" stroke-width="4"/>
<path d="M799.876 146.346L1058.88 -29.6543" stroke="#0076BE" stroke-width="4"/>
<path d="M807.876 154.346L1066.88 -21.6543" stroke="#0076BE" stroke-width="4"/>
<path d="M815.876 162.346L1074.88 -13.6542" stroke="#0076BE" stroke-width="4"/>
<path d="M823.876 170.346L1082.88 -5.65424" stroke="#0076BE" stroke-width="4"/>
<path d="M942.876 103.346L1201.88 -72.6543" stroke="#0076BE" stroke-width="4"/>
<path d="M950.876 111.346L1209.88 -64.6543" stroke="#0076BE" stroke-width="4"/>
<path d="M958.876 119.346L1217.88 -56.6543" stroke="#0076BE" stroke-width="4"/>
<path d="M966.88 127.346L1225.88 -48.6543" stroke="#0076BE" stroke-width="4"/>
<path d="M974.88 135.346L1233.88 -40.6543" stroke="#0076BE" stroke-width="4"/>
<path d="M982.88 143.346L1241.88 -32.6543" stroke="#0076BE" stroke-width="4"/>
<path d="M990.88 151.346L1249.88 -24.6543" stroke="#0076BE" stroke-width="4"/>
<path d="M998.88 159.346L1257.88 -16.6542" stroke="#0076BE" stroke-width="4"/>
<path d="M1006.88 167.346L1265.88 -8.65424" stroke="#0076BE" stroke-width="4"/>
<path d="M1049.88 151.346L1308.88 -24.6543" stroke="#0076BE" stroke-width="4"/>
<path d="M1057.88 159.346L1316.88 -16.6542" stroke="#0076BE" stroke-width="4"/>
<path d="M1065.88 167.346L1324.88 -8.65424" stroke="#0076BE" stroke-width="4"/>
<path d="M1073.88 175.346L1332.88 -0.654236" stroke="#0076BE" stroke-width="4"/>
<path d="M1081.88 183.346L1340.88 7.34576" stroke="#0076BE" stroke-width="4"/>
<path d="M1085.88 187.346L1344.88 11.3458" stroke="#0076BE" stroke-width="4"/>
</mask>
<g mask="url(#mask0_301_2)">
<path d="M1317 -6.10352e-05H0V30.9999H1317V-6.10352e-05Z" fill="#0076BE"/>
</g>
</g>
<defs>
<clipPath id="clip0_301_2">
<rect width="1317" height="31" fill="white"/>
</clipPath>
</defs>
</svg>
