<svg width="122" height="398" viewBox="0 0 122 398" fill="none" xmlns="http://www.w3.org/2000/svg">
<g clip-path="url(#clip0_462_2540)">
<circle cx="60.5" cy="63.5" r="31.5" fill="#D65B34"/>
<line x1="61" y1="8.74228e-08" x2="61" y2="122" stroke="#D65B34" stroke-width="4"/>
<line y1="62" x2="122" y2="62" stroke="#D65B34" stroke-width="4"/>
<line x1="16.5858" y1="106.853" x2="102.853" y2="20.5858" stroke="#D65B34" stroke-width="4"/>
<line x1="19.4142" y1="20.5858" x2="105.681" y2="106.853" stroke="#D65B34" stroke-width="4"/>
</g>
<path d="M50 237.5C50 240.538 47.5376 243 44.5 243C41.4624 243 39 240.538 39 237.5C39 234.462 44.4999 226 44.4999 226C44.4999 226 50 234.462 50 237.5Z" fill="#0076BE"/>
<path d="M83 238.5C83 241.538 80.5376 244 77.5 244C74.4624 244 72 241.538 72 238.5C72 235.462 77.4999 227 77.4999 227C77.4999 227 83 235.462 83 238.5Z" fill="#0076BE"/>
<path d="M28 248.5C28 251.538 25.5376 254 22.5 254C19.4624 254 17 251.538 17 248.5C17 245.462 22.4999 237 22.4999 237C22.4999 237 28 245.462 28 248.5Z" fill="#0076BE"/>
<path d="M105 247.5C105 250.538 102.538 253 99.5 253C96.4624 253 94 250.538 94 247.5C94 244.462 99.4999 236 99.4999 236C99.4999 236 105 244.462 105 247.5Z" fill="#0076BE"/>
<circle cx="58.6689" cy="178.187" r="35.3525" fill="white"/>
<circle cx="88.5823" cy="190.23" r="26.4173" fill="white"/>
<circle cx="59.0575" cy="190.23" r="27.1942" fill="white"/>
<circle cx="28.3669" cy="195.28" r="21.3669" fill="white"/>
<path fill-rule="evenodd" clip-rule="evenodd" d="M60.5 374C81.2107 374 98 357.211 98 336.5C98 334.359 97.8207 332.261 97.4762 330.218C95.0601 342.077 84.5721 351 72 351C57.6406 351 46 339.359 46 325C46 312.428 54.9232 301.94 66.7817 299.524C64.7391 299.179 62.6405 299 60.5 299C39.7893 299 23 315.789 23 336.5C23 357.211 39.7893 374 60.5 374Z" fill="#D65B34"/>
<defs>
<clipPath id="clip0_462_2540">
<rect width="122" height="122" fill="white"/>
</clipPath>
</defs>
</svg>
